<svg xmlns="http://www.w3.org/2000/svg" xmlns:xlink="http://www.w3.org/1999/xlink" contentStyleType="text/css" height="832px" preserveAspectRatio="none" style="width:481px;height:832px;background:#FFFFFF;" version="1.1" viewBox="0 0 481 832" width="481px" zoomAndPan="magnify"><defs/><g><!--cluster org--><g id="cluster_org"><path d="M8.5,6.0137 L32.0518,6.0137 A3.75,3.75 0 0 1 34.5518,8.5137 L41.5518,30.6348 L471.5,30.6348 A2.5,2.5 0 0 1 474,33.1348 L474,822.5137 A2.5,2.5 0 0 1 471.5,825.0137 L8.5,825.0137 A2.5,2.5 0 0 1 6,822.5137 L6,8.5137 A2.5,2.5 0 0 1 8.5,6.0137 " fill="none" style="stroke:#000000;stroke-width:1.5;"/><line style="stroke:#000000;stroke-width:1.5;" x1="6" x2="41.5518" y1="30.6348" y2="30.6348"/><text fill="#000000" font-family="sans-serif" font-size="14" font-weight="bold" lengthAdjust="spacing" textLength="22.5518" x="10" y="23.1211">org</text></g><!--cluster citadel--><g id="cluster_citadel"><path d="M32.5,51.0137 L77.8516,51.0137 A3.75,3.75 0 0 1 80.3516,53.5137 L87.3516,75.6348 L447.5,75.6348 A2.5,2.5 0 0 1 450,78.1348 L450,798.5137 A2.5,2.5 0 0 1 447.5,801.0137 L32.5,801.0137 A2.5,2.5 0 0 1 30,798.5137 L30,53.5137 A2.5,2.5 0 0 1 32.5,51.0137 " fill="none" style="stroke:#000000;stroke-width:1.5;"/><line style="stroke:#000000;stroke-width:1.5;" x1="30" x2="87.3516" y1="75.6348" y2="75.6348"/><text fill="#000000" font-family="sans-serif" font-size="14" font-weight="bold" lengthAdjust="spacing" textLength="44.3516" x="34" y="68.1211">citadel</text></g><!--cluster views--><g id="cluster_views"><path d="M66.5,104.0137 L105.6377,104.0137 A3.75,3.75 0 0 1 108.1377,106.5137 L115.1377,128.6348 L412.5,128.6348 A2.5,2.5 0 0 1 415,131.1348 L415,227.5137 A2.5,2.5 0 0 1 412.5,230.0137 L66.5,230.0137 A2.5,2.5 0 0 1 64,227.5137 L64,106.5137 A2.5,2.5 0 0 1 66.5,104.0137 " fill="none" style="stroke:#000000;stroke-width:1.5;"/><line style="stroke:#000000;stroke-width:1.5;" x1="64" x2="115.1377" y1="128.6348" y2="128.6348"/><text fill="#000000" font-family="sans-serif" font-size="14" font-weight="bold" lengthAdjust="spacing" textLength="38.1377" x="68" y="121.1211">views</text></g><!--cluster controllers--><g id="cluster_controllers"><path d="M77.5,270.0137 L150.8516,270.0137 A3.75,3.75 0 0 1 153.3516,272.5137 L160.3516,294.6348 L415.5,294.6348 A2.5,2.5 0 0 1 418,297.1348 L418,462.5137 A2.5,2.5 0 0 1 415.5,465.0137 L77.5,465.0137 A2.5,2.5 0 0 1 75,462.5137 L75,272.5137 A2.5,2.5 0 0 1 77.5,270.0137 " fill="none" style="stroke:#000000;stroke-width:1.5;"/><line style="stroke:#000000;stroke-width:1.5;" x1="75" x2="160.3516" y1="294.6348" y2="294.6348"/><text fill="#000000" font-family="sans-serif" font-size="14" font-weight="bold" lengthAdjust="spacing" textLength="72.3516" x="79" y="287.1211">controllers</text></g><!--cluster local--><g id="cluster_local"><path d="M207.5,323.0137 L240.4033,323.0137 A3.75,3.75 0 0 1 242.9033,325.5137 L249.9033,347.6348 L383.5,347.6348 A2.5,2.5 0 0 1 386,350.1348 L386,430.5137 A2.5,2.5 0 0 1 383.5,433.0137 L207.5,433.0137 A2.5,2.5 0 0 1 205,430.5137 L205,325.5137 A2.5,2.5 0 0 1 207.5,323.0137 " fill="none" style="stroke:#000000;stroke-width:1.5;"/><line style="stroke:#000000;stroke-width:1.5;" x1="205" x2="249.9033" y1="347.6348" y2="347.6348"/><text fill="#000000" font-family="sans-serif" font-size="14" font-weight="bold" lengthAdjust="spacing" textLength="31.9033" x="209" y="340.1211">local</text></g><!--cluster models--><g id="cluster_models"><path d="M70.5,505.0137 L120.5137,505.0137 A3.75,3.75 0 0 1 123.0137,507.5137 L130.0137,529.6348 L341.5,529.6348 A2.5,2.5 0 0 1 344,532.1348 L344,766.5137 A2.5,2.5 0 0 1 341.5,769.0137 L70.5,769.0137 A2.5,2.5 0 0 1 68,766.5137 L68,507.5137 A2.5,2.5 0 0 1 70.5,505.0137 " fill="none" style="stroke:#000000;stroke-width:1.5;"/><line style="stroke:#000000;stroke-width:1.5;" x1="68" x2="130.0137" y1="529.6348" y2="529.6348"/><text fill="#000000" font-family="sans-serif" font-size="14" font-weight="bold" lengthAdjust="spacing" textLength="49.0137" x="72" y="522.1211">models</text></g><!--cluster pieces--><g id="cluster_pieces"><path d="M110.5,558.0137 L155.0859,558.0137 A3.75,3.75 0 0 1 157.5859,560.5137 L164.5859,582.6348 L309.5,582.6348 A2.5,2.5 0 0 1 312,585.1348 L312,734.5137 A2.5,2.5 0 0 1 309.5,737.0137 L110.5,737.0137 A2.5,2.5 0 0 1 108,734.5137 L108,560.5137 A2.5,2.5 0 0 1 110.5,558.0137 " fill="none" style="stroke:#000000;stroke-width:1.5;"/><line style="stroke:#000000;stroke-width:1.5;" x1="108" x2="164.5859" y1="582.6348" y2="582.6348"/><text fill="#000000" font-family="sans-serif" font-size="14" font-weight="bold" lengthAdjust="spacing" textLength="43.5859" x="112" y="575.1211">pieces</text></g><!--cluster pieceMovementRuler--><g id="cluster_pieceMovementRuler"><path d="M134.5,603.0137 L276.3203,603.0137 A3.75,3.75 0 0 1 278.8203,605.5137 L285.8203,627.6348 L285.5,627.6348 A2.5,2.5 0 0 1 288,630.1348 L288,710.5137 A2.5,2.5 0 0 1 285.5,713.0137 L134.5,713.0137 A2.5,2.5 0 0 1 132,710.5137 L132,605.5137 A2.5,2.5 0 0 1 134.5,603.0137 " fill="none" style="stroke:#000000;stroke-width:1.5;"/><line style="stroke:#000000;stroke-width:1.5;" x1="132" x2="285.8203" y1="627.6348" y2="627.6348"/><text fill="#000000" font-family="sans-serif" font-size="14" font-weight="bold" lengthAdjust="spacing" textLength="140.8203" x="136" y="620.1211">pieceMovementRuler</text></g><path d="M331.5,149.0137 L374.4932,149.0137 A3.75,3.75 0 0 1 376.9932,151.5137 L383.9932,173.6348 L388.4932,173.6348 A2.5,2.5 0 0 1 390.9932,176.1348 L390.9932,203.7559 A2.5,2.5 0 0 1 388.4932,206.2559 L331.5,206.2559 A2.5,2.5 0 0 1 329,203.7559 L329,151.5137 A2.5,2.5 0 0 1 331.5,149.0137 " fill="#F1F1F1" style="stroke:#181818;stroke-width:0.5;"/><line style="stroke:#181818;stroke-width:0.5;" x1="329" x2="383.9932" y1="173.6348" y2="173.6348"/><text fill="#000000" font-family="sans-serif" font-size="14" font-weight="bold" lengthAdjust="spacing" textLength="41.9932" x="333" y="166.1211">config</text><path d="M218.5,149.0137 L277.8516,149.0137 A3.75,3.75 0 0 1 280.3516,151.5137 L287.3516,173.6348 L291.8516,173.6348 A2.5,2.5 0 0 1 294.3516,176.1348 L294.3516,203.7559 A2.5,2.5 0 0 1 291.8516,206.2559 L218.5,206.2559 A2.5,2.5 0 0 1 216,203.7559 L216,151.5137 A2.5,2.5 0 0 1 218.5,149.0137 " fill="#F1F1F1" style="stroke:#181818;stroke-width:0.5;"/><line style="stroke:#181818;stroke-width:0.5;" x1="216" x2="287.3516" y1="173.6348" y2="173.6348"/><text fill="#000000" font-family="sans-serif" font-size="14" font-weight="bold" lengthAdjust="spacing" textLength="58.3516" x="220" y="166.1211">graphics</text><path d="M110,149.0137 L163.9033,149.0137 A3.75,3.75 0 0 1 166.4033,151.5137 L173.4033,173.6348 L177.9033,173.6348 A2.5,2.5 0 0 1 180.4033,176.1348 L180.4033,203.7559 A2.5,2.5 0 0 1 177.9033,206.2559 L110,206.2559 A2.5,2.5 0 0 1 107.5,203.7559 L107.5,151.5137 A2.5,2.5 0 0 1 110,149.0137 " fill="#F1F1F1" style="stroke:#181818;stroke-width:0.5;"/><line style="stroke:#181818;stroke-width:0.5;" x1="107.5" x2="173.4033" y1="173.6348" y2="173.6348"/><text fill="#000000" font-family="sans-serif" font-size="14" font-weight="bold" lengthAdjust="spacing" textLength="52.9033" x="111.5" y="166.1211">console</text><path d="M319,360.0137 L352.6689,360.0137 A3.75,3.75 0 0 1 355.1689,362.5137 L362.1689,384.6348 L366.6689,384.6348 A2.5,2.5 0 0 1 369.1689,387.1348 L369.1689,414.7559 A2.5,2.5 0 0 1 366.6689,417.2559 L319,417.2559 A2.5,2.5 0 0 1 316.5,414.7559 L316.5,362.5137 A2.5,2.5 0 0 1 319,360.0137 " fill="#F1F1F1" style="stroke:#181818;stroke-width:0.5;"/><line style="stroke:#181818;stroke-width:0.5;" x1="316.5" x2="362.1689" y1="384.6348" y2="384.6348"/><text fill="#000000" font-family="sans-serif" font-size="14" font-weight="bold" lengthAdjust="spacing" textLength="32.6689" x="320.5" y="377.1211">logic</text><path d="M223.5,360.0137 L264.9688,360.0137 A3.75,3.75 0 0 1 267.4688,362.5137 L274.4688,384.6348 L278.9688,384.6348 A2.5,2.5 0 0 1 281.4688,387.1348 L281.4688,414.7559 A2.5,2.5 0 0 1 278.9688,417.2559 L223.5,417.2559 A2.5,2.5 0 0 1 221,414.7559 L221,362.5137 A2.5,2.5 0 0 1 223.5,360.0137 " fill="#F1F1F1" style="stroke:#181818;stroke-width:0.5;"/><line style="stroke:#181818;stroke-width:0.5;" x1="221" x2="274.4688" y1="384.6348" y2="384.6348"/><text fill="#000000" font-family="sans-serif" font-size="14" font-weight="bold" lengthAdjust="spacing" textLength="40.4688" x="225" y="377.1211">errors</text><path d="M121,360.0137 L168.6826,360.0137 A3.75,3.75 0 0 1 171.1826,362.5137 L178.1826,384.6348 L182.6826,384.6348 A2.5,2.5 0 0 1 185.1826,387.1348 L185.1826,414.7559 A2.5,2.5 0 0 1 182.6826,417.2559 L121,417.2559 A2.5,2.5 0 0 1 118.5,414.7559 L118.5,362.5137 A2.5,2.5 0 0 1 121,360.0137 " fill="#F1F1F1" style="stroke:#181818;stroke-width:0.5;"/><line style="stroke:#181818;stroke-width:0.5;" x1="118.5" x2="178.1826" y1="384.6348" y2="384.6348"/><text fill="#000000" font-family="sans-serif" font-size="14" font-weight="bold" lengthAdjust="spacing" textLength="46.6826" x="122.5" y="377.1211">remote</text><path d="M169.5,640.0137 L236.6445,640.0137 A3.75,3.75 0 0 1 239.1445,642.5137 L246.1445,664.6348 L250.6445,664.6348 A2.5,2.5 0 0 1 253.1445,667.1348 L253.1445,694.7559 A2.5,2.5 0 0 1 250.6445,697.2559 L169.5,697.2559 A2.5,2.5 0 0 1 167,694.7559 L167,642.5137 A2.5,2.5 0 0 1 169.5,640.0137 " fill="#F1F1F1" style="stroke:#181818;stroke-width:0.5;"/><line style="stroke:#181818;stroke-width:0.5;" x1="167" x2="246.1445" y1="664.6348" y2="664.6348"/><text fill="#000000" font-family="sans-serif" font-size="14" font-weight="bold" lengthAdjust="spacing" textLength="66.1445" x="171" y="657.1211">strategies</text><!--link views to controllers--><g id="link_views_controllers"><path codeLine="25" d="M74.7475,230.6674 C74.7841,231.3627 74.8209,232.0621 74.8579,232.7656 C74.9319,234.1725 75.0068,235.5953 75.0825,237.0327 C75.2337,239.9074 75.388,242.8401 75.5448,245.8191 C75.8583,251.7773 76.1815,257.9209 76.5097,264.1572 C76.5917,265.7163 76.674,267.2811 76.7566,268.8503 C76.7669,269.0465 76.7772,269.2427 76.7876,269.439 C76.7927,269.5371 76.7979,269.6353 76.8031,269.7335 C76.8056,269.7825 76.493,263.8399 76.4956,263.889 " fill="none" id="views-to-controllers" style="stroke:#181818;stroke-width:1.0;"/><polygon fill="#181818" points="76.8108,269.8807,80.3324,260.683,76.5481,264.8876,72.3435,261.1033,76.8108,269.8807" style="stroke:#181818;stroke-width:1.0;"/></g><!--link views to models--><g id="link_views_models"><path codeLine="26" d="M68.133,230.0319 C68.1253,230.1635 68.1176,230.295 68.11,230.4267 C68.0792,230.9532 68.0488,231.4804 68.0187,232.0082 C67.9584,233.0637 67.8994,234.1214 67.8418,235.1798 C67.7267,237.2967 67.6173,239.4167 67.5151,241.5285 C67.3106,245.7523 67.135,249.9437 67,254.0137 C63.66,354.8437 64.57,380.1537 67,481.0137 C67.2463,491.2212 67.5681,501.7404 67.9433,512.3401 C67.955,512.6713 67.7528,507.0064 67.7646,507.3378 " fill="none" id="views-to-models" style="stroke:#181818;stroke-width:1.0;stroke-dasharray:7.0,7.0;"/><polygon fill="#181818" points="67.9786,513.334,71.6551,504.1971,67.8003,508.3372,63.6602,504.4824,67.9786,513.334" style="stroke:#181818;stroke-width:1.0;"/></g><!--link controllers to models--><g id="link_controllers_models"><path codeLine="27" d="M81.064,466.4048 C80.9665,470.2764 80.867,474.2289 80.7658,478.2462 C80.5635,486.2808 80.3547,494.5743 80.1427,502.9972 C80.1294,503.5237 80.1162,504.0506 80.1029,504.578 C80.0996,504.7099 80.2473,498.8436 80.2439,498.9756 " fill="none" id="controllers-to-models" style="stroke:#181818;stroke-width:1.0;"/><polygon fill="#181818" points="80.0929,504.9737,84.3182,496.0772,80.2188,499.9752,76.3207,495.8758,80.0929,504.9737" style="stroke:#181818;stroke-width:1.0;"/></g><!--SRC=[VP514i8W34Ntd89ntnx16xZn1aoCc94sJC2wS7ftCzMgb5OMBF8Vv0MYWwlpQ7SilWNAxeIX7GZlQMSVnkgACm7SdybhUIphNboy4AGwqHE90qx1Q4nSwwLC5Wu1fUuO65oOgul44tmQ5X6Ai7nb5ag27UV_HXthNij4Gi2qQZD51nwmmpuVRphBBrQWAOlBw0bJOJ-xgbFr4RPfzdRZoLRejeHVqvYDyzNTR_m9]--></g></svg>