<svg xmlns="http://www.w3.org/2000/svg" xmlns:xlink="http://www.w3.org/1999/xlink" contentStyleType="text/css" height="1432.2px" preserveAspectRatio="none" style="width:1028px;height:1432px;background:#FFFFFF;" version="1.1" viewBox="0 0 1028 1432" width="1028.4px" zoomAndPan="magnify"><defs/><g><!--cluster models--><g id="cluster_models"><path d="M33.804,3.6082 L63.8122,3.6082 A2.25,2.25 0 0 1 65.3122,5.1082 L69.5122,18.3809 L960.204,18.3809 A1.5,1.5 0 0 1 961.704,19.8809 L961.704,1426.5082 A1.5,1.5 0 0 1 960.204,1428.0082 L33.804,1428.0082 A1.5,1.5 0 0 1 32.304,1426.5082 L32.304,5.1082 A1.5,1.5 0 0 1 33.804,3.6082 " fill="none" style="stroke:#000000;stroke-width:0.8999999999999999;"/><line style="stroke:#000000;stroke-width:0.8999999999999999;" x1="32.304" x2="69.5122" y1="18.3809" y2="18.3809"/><text fill="#000000" font-family="sans-serif" font-size="8.4" font-weight="bold" lengthAdjust="spacing" textLength="29.4082" x="34.704" y="13.8727">models</text></g><!--cluster pieces--><g id="cluster_pieces"><path d="M173.004,790.2082 L199.7556,790.2082 A2.25,2.25 0 0 1 201.2556,791.7082 L205.4556,804.9809 L938.004,804.9809 A1.5,1.5 0 0 1 939.504,806.4809 L939.504,1412.1082 A1.5,1.5 0 0 1 938.004,1413.6082 L173.004,1413.6082 A1.5,1.5 0 0 1 171.504,1412.1082 L171.504,791.7082 A1.5,1.5 0 0 1 173.004,790.2082 " fill="none" style="stroke:#000000;stroke-width:0.8999999999999999;"/><line style="stroke:#000000;stroke-width:0.8999999999999999;" x1="171.504" x2="205.4556" y1="804.9809" y2="804.9809"/><text fill="#000000" font-family="sans-serif" font-size="8.4" font-weight="bold" lengthAdjust="spacing" textLength="26.1516" x="173.904" y="800.4727">pieces</text></g><!--cluster rulesofmovements--><g id="cluster_rulesOfMovements"><path d="M426.804,1222.2082 L503.0245,1222.2082 A2.25,2.25 0 0 1 504.5245,1223.7082 L508.7245,1236.9809 L515.604,1236.9809 A1.5,1.5 0 0 1 517.104,1238.4809 L517.104,1296.3082 A1.5,1.5 0 0 1 515.604,1297.8082 L426.804,1297.8082 A1.5,1.5 0 0 1 425.304,1296.3082 L425.304,1223.7082 A1.5,1.5 0 0 1 426.804,1222.2082 " fill="none" style="stroke:#000000;stroke-width:0.8999999999999999;"/><line style="stroke:#000000;stroke-width:0.8999999999999999;" x1="425.304" x2="508.7245" y1="1236.9809" y2="1236.9809"/><text fill="#000000" font-family="sans-serif" font-size="8.4" font-weight="bold" lengthAdjust="spacing" textLength="75.6205" x="427.704" y="1232.4727">rulesOfMovements</text></g><!--class Observer--><g id="elem_Observer"><rect codeLine="15" fill="#F1F1F1" height="73.4906" id="Observer" rx="1.5" ry="1.5" style="stroke:#181818;stroke-width:0.3;" width="68.8178" x="281.004" y="37.2082"/><ellipse cx="296.7875" cy="46.8082" fill="#B4A7E5" rx="6.6" ry="6.6" style="stroke:#181818;stroke-width:0.6;"/><path d="M297.3594,44.7926 L297.3594,48.7863 L298.3906,48.7863 Q298.7562,48.7863 298.9156,48.927 Q299.075,49.0676 299.075,49.302 Q299.075,49.527 298.9156,49.6676 Q298.7562,49.8082 298.3906,49.8082 L295.3062,49.8082 Q294.9406,49.8082 294.7812,49.6676 Q294.6219,49.527 294.6219,49.2926 Q294.6219,49.0676 294.7812,48.927 Q294.9406,48.7863 295.3062,48.7863 L296.3375,48.7863 L296.3375,44.7926 L295.3062,44.7926 Q294.9406,44.7926 294.7812,44.652 Q294.6219,44.5113 294.6219,44.277 Q294.6219,44.052 294.7812,43.9113 Q294.9406,43.7707 295.3062,43.7707 L298.3906,43.7707 Q298.7562,43.7707 298.9156,43.9113 Q299.075,44.052 299.075,44.277 Q299.075,44.5113 298.9156,44.652 Q298.7562,44.7926 298.3906,44.7926 L297.3594,44.7926 Z " fill="#000000"/><text fill="#000000" font-family="sans-serif" font-size="8.4" font-style="italic" lengthAdjust="spacing" textLength="34.5434" x="306.6949" y="50.2863">Observer</text><line style="stroke:#181818;stroke-width:0.3;" x1="281.604" x2="349.2218" y1="56.4082" y2="56.4082"/><line style="stroke:#181818;stroke-width:0.3;" x1="281.604" x2="349.2218" y1="61.2082" y2="61.2082"/><polygon fill="#4177AF" points="287.604,67.6945,285.204,71.2945,290.004,71.2945" style="stroke:#1963A0;stroke-width:0.6;"/><text fill="#000000" font-family="sans-serif" font-size="8.4" lengthAdjust="spacing" textLength="53.2178" x="293.004" y="72.6727">void initialize()</text><polygon fill="#4177AF" points="287.604,78.8672,285.204,82.4672,290.004,82.4672" style="stroke:#1963A0;stroke-width:0.6;"/><text fill="#000000" font-family="sans-serif" font-size="8.4" lengthAdjust="spacing" textLength="43.8908" x="293.004" y="83.8453">void begin()</text><polygon fill="#4177AF" points="287.604,90.0398,285.204,93.6398,290.004,93.6398" style="stroke:#1963A0;stroke-width:0.6;"/><text fill="#000000" font-family="sans-serif" font-size="8.4" lengthAdjust="spacing" textLength="37.3529" x="293.004" y="95.018">void end()</text><polygon fill="#4177AF" points="287.604,101.2125,285.204,104.8125,290.004,104.8125" style="stroke:#1963A0;stroke-width:0.6;"/><text fill="#000000" font-family="sans-serif" font-size="8.4" lengthAdjust="spacing" textLength="36.4096" x="293.004" y="106.1906">void exit()</text></g><!--class Board--><g id="elem_Board"><rect codeLine="30" fill="#F1F1F1" height="375.1523" id="Board" rx="1.5" ry="1.5" style="stroke:#181818;stroke-width:0.3;" width="196.7578" x="332.304" y="401.4082"/><ellipse cx="416.9254" cy="411.0082" fill="#ADD1B2" rx="6.6" ry="6.6" style="stroke:#181818;stroke-width:0.6;"/><path d="M418.5848,408.5332 Q418.6785,408.402 418.791,408.3363 Q418.9035,408.2707 419.0348,408.2707 Q419.2598,408.2707 419.4004,408.4301 Q419.541,408.5801 419.541,408.9457 L419.541,409.8176 Q419.541,410.1832 419.4004,410.3426 Q419.2598,410.502 419.0348,410.502 Q418.8285,410.502 418.7066,410.3801 Q418.5848,410.2676 418.5191,409.9582 Q418.491,409.7426 418.3785,409.6301 Q418.1816,409.4051 417.816,409.2738 Q417.4504,409.1426 417.0754,409.1426 Q416.616,409.1426 416.2316,409.3395 Q415.8566,409.5363 415.5566,409.9863 Q415.266,410.4363 415.266,411.0551 L415.266,411.7113 Q415.266,412.452 415.8004,412.9488 Q416.3348,413.4363 417.291,413.4363 Q417.8535,413.4363 418.2473,413.2863 Q418.4816,413.1926 418.7348,412.9301 Q418.8941,412.7707 418.9785,412.7238 Q419.0723,412.677 419.1941,412.677 Q419.391,412.677 419.541,412.8363 Q419.7004,412.9863 419.7004,413.1926 Q419.7004,413.3988 419.4941,413.6426 Q419.1941,413.9895 418.716,414.1863 Q418.0691,414.4582 417.291,414.4582 Q416.3816,414.4582 415.6598,414.0832 Q415.0691,413.7832 414.6566,413.1457 Q414.2441,412.4988 414.2441,411.7301 L414.2441,411.0363 Q414.2441,410.2395 414.6098,409.5551 Q414.9848,408.8613 415.641,408.4957 Q416.2973,408.1207 417.0379,408.1207 Q417.4785,408.1207 417.8629,408.2238 Q418.2566,408.3176 418.5848,408.5332 Z " fill="#000000"/><text fill="#000000" font-family="sans-serif" font-size="8.4" lengthAdjust="spacing" textLength="22.415" x="429.2254" y="414.4863">Board</text><line style="stroke:#181818;stroke-width:0.3;" x1="332.904" x2="528.4618" y1="420.6082" y2="420.6082"/><rect fill="none" height="3.6" style="stroke:#C82930;stroke-width:0.6;" width="3.6" x="337.104" y="427.6945"/><text fill="#000000" font-family="sans-serif" font-size="8.4" lengthAdjust="spacing" textLength="135.409" x="344.304" y="432.0727">Map&lt;Color,List&lt;Piece&gt;&gt; piecesMap</text><rect fill="none" height="3.6" style="stroke:#C82930;stroke-width:0.6;" width="3.6" x="337.104" y="438.8672"/><text fill="#000000" font-family="sans-serif" font-size="8.4" lengthAdjust="spacing" textLength="181.1578" x="344.304" y="443.2453">Map&lt;Color,List&lt;Piece&gt;&gt; mapOfRemovedPieces</text><rect fill="none" height="3.6" style="stroke:#C82930;stroke-width:0.6;" width="3.6" x="337.104" y="450.0398"/><text fill="#000000" font-family="sans-serif" font-size="8.4" lengthAdjust="spacing" textLength="121.4104" x="344.304" y="454.418">SelectablePiece selectablePiece</text><rect fill="none" height="3.6" style="stroke:#C82930;stroke-width:0.6;" width="3.6" x="337.104" y="461.2125"/><text fill="#000000" font-family="sans-serif" font-size="8.4" lengthAdjust="spacing" textLength="34.0799" x="344.304" y="465.5906">Turn turn</text><rect fill="none" height="3.6" style="stroke:#C82930;stroke-width:0.6;" width="3.6" x="337.104" y="472.3852"/><text fill="#000000" font-family="sans-serif" font-size="8.4" lengthAdjust="spacing" textLength="96.6697" x="344.304" y="476.7633">boolean isPieceEndBoard</text><rect fill="none" height="3.6" style="stroke:#C82930;stroke-width:0.6;" width="3.6" x="337.104" y="483.5578"/><text fill="#000000" font-family="sans-serif" font-size="8.4" lengthAdjust="spacing" textLength="128.8793" x="344.304" y="487.9359">List&lt;Coordinate&gt; validCoordinates</text><rect fill="none" height="3.6" style="stroke:#C82930;stroke-width:0.6;" width="3.6" x="337.104" y="494.7305"/><text fill="#000000" font-family="sans-serif" font-size="8.4" lengthAdjust="spacing" text-decoration="underline" textLength="119.0602" x="344.304" y="499.1086">ClosedInterval&lt;Integer&gt; LIMITS</text><line style="stroke:#181818;stroke-width:0.3;" x1="332.904" x2="528.4618" y1="503.6168" y2="503.6168"/><ellipse cx="338.904" cy="512.5031" fill="#84BE84" rx="1.8" ry="1.8" style="stroke:#038048;stroke-width:0.6;"/><text fill="#000000" font-family="sans-serif" font-size="8.4" lengthAdjust="spacing" textLength="86.3748" x="344.304" y="515.0813">void select(Coordinate)</text><ellipse cx="338.904" cy="523.6758" fill="#84BE84" rx="1.8" ry="1.8" style="stroke:#038048;stroke-width:0.6;"/><text fill="#000000" font-family="sans-serif" font-size="8.4" lengthAdjust="spacing" textLength="76.1086" x="344.304" y="526.2539">void put(Coordinate)</text><ellipse cx="338.904" cy="534.8484" fill="#84BE84" rx="1.8" ry="1.8" style="stroke:#038048;stroke-width:0.6;"/><text fill="#000000" font-family="sans-serif" font-size="8.4" lengthAdjust="spacing" textLength="115.7953" x="344.304" y="537.4266">boolean isThePawnPromoted()</text><ellipse cx="338.904" cy="546.0211" fill="#84BE84" rx="1.8" ry="1.8" style="stroke:#038048;stroke-width:0.6;"/><text fill="#000000" font-family="sans-serif" font-size="8.4" lengthAdjust="spacing" textLength="142.8779" x="344.304" y="548.5992">boolean isMovementValid(Coordinate)</text><ellipse cx="338.904" cy="557.1938" fill="#84BE84" rx="1.8" ry="1.8" style="stroke:#038048;stroke-width:0.6;"/><text fill="#000000" font-family="sans-serif" font-size="8.4" lengthAdjust="spacing" textLength="165.2725" x="344.304" y="559.7719">void removeCurrentPlayerPiece(Coordinate)</text><ellipse cx="338.904" cy="568.3664" fill="#84BE84" rx="1.8" ry="1.8" style="stroke:#038048;stroke-width:0.6;"/><text fill="#000000" font-family="sans-serif" font-size="8.4" lengthAdjust="spacing" textLength="155.9332" x="344.304" y="570.9445">void removeRivalPlayerPiece(Coordinate)</text><rect fill="#F24D5C" height="3.6" style="stroke:#C82930;stroke-width:0.6;" width="3.6" x="337.104" y="577.7391"/><text fill="#000000" font-family="sans-serif" font-size="8.4" lengthAdjust="spacing" textLength="165.2807" x="344.304" y="582.1172">void removeBy(Supplier&lt;Color&gt;,Coordinate)</text><ellipse cx="338.904" cy="590.7117" fill="#84BE84" rx="1.8" ry="1.8" style="stroke:#038048;stroke-width:0.6;"/><text fill="#000000" font-family="sans-serif" font-size="8.4" lengthAdjust="spacing" textLength="152.6725" x="344.304" y="593.2898">boolean isWithinBoardLimits(Coordinate)</text><ellipse cx="338.904" cy="601.8844" fill="#84BE84" rx="1.8" ry="1.8" style="stroke:#038048;stroke-width:0.6;"/><text fill="#000000" font-family="sans-serif" font-size="8.4" lengthAdjust="spacing" textLength="138.6861" x="344.304" y="604.4625">boolean isPieceSelected(Coordinate)</text><ellipse cx="338.904" cy="613.057" fill="#84BE84" rx="1.8" ry="1.8" style="stroke:#038048;stroke-width:0.6;"/><text fill="#000000" font-family="sans-serif" font-size="8.4" lengthAdjust="spacing" textLength="174.6322" x="344.304" y="615.6352">boolean isTheWhitePieceSelected(Coordinate)</text><ellipse cx="338.904" cy="624.2297" fill="#84BE84" rx="1.8" ry="1.8" style="stroke:#038048;stroke-width:0.6;"/><text fill="#000000" font-family="sans-serif" font-size="8.4" lengthAdjust="spacing" textLength="173.7012" x="344.304" y="626.8078">boolean isTheBlackPieceSelected(Coordinate)</text><ellipse cx="338.904" cy="635.4023" fill="#84BE84" rx="1.8" ry="1.8" style="stroke:#038048;stroke-width:0.6;"/><text fill="#000000" font-family="sans-serif" font-size="8.4" lengthAdjust="spacing" textLength="108.7898" x="344.304" y="637.9805">boolean isEmpty(Coordinate)</text><ellipse cx="338.904" cy="646.575" fill="#84BE84" rx="1.8" ry="1.8" style="stroke:#038048;stroke-width:0.6;"/><text fill="#000000" font-family="sans-serif" font-size="8.4" lengthAdjust="spacing" textLength="115.7953" x="344.304" y="649.1531">boolean isItEnemy(Coordinate)</text><ellipse cx="338.904" cy="657.7477" fill="#84BE84" rx="1.8" ry="1.8" style="stroke:#038048;stroke-width:0.6;"/><text fill="#000000" font-family="sans-serif" font-size="8.4" lengthAdjust="spacing" textLength="146.1428" x="344.304" y="660.3258">boolean isItTheSameColor(Coordinate)</text><ellipse cx="338.904" cy="668.9203" fill="#84BE84" rx="1.8" ry="1.8" style="stroke:#038048;stroke-width:0.6;"/><text fill="#000000" font-family="sans-serif" font-size="8.4" lengthAdjust="spacing" textLength="66.7775" x="344.304" y="671.4984">boolean isJaque()</text><rect fill="#F24D5C" height="3.6" style="stroke:#C82930;stroke-width:0.6;" width="3.6" x="337.104" y="678.293"/><text fill="#000000" font-family="sans-serif" font-size="8.4" lengthAdjust="spacing" textLength="146.6145" x="344.304" y="682.6711">boolean isTheKingInValidMoves(Piece)</text><ellipse cx="338.904" cy="691.2656" fill="#84BE84" rx="1.8" ry="1.8" style="stroke:#038048;stroke-width:0.6;"/><text fill="#000000" font-family="sans-serif" font-size="8.4" lengthAdjust="spacing" textLength="104.5939" x="344.304" y="693.8438">boolean isRook(Coordinate)</text><ellipse cx="338.904" cy="702.4383" fill="#84BE84" rx="1.8" ry="1.8" style="stroke:#038048;stroke-width:0.6;"/><text fill="#000000" font-family="sans-serif" font-size="8.4" lengthAdjust="spacing" textLength="145.6752" x="344.304" y="705.0164">List&lt;Coordinate&gt; getValidMovements()</text><ellipse cx="338.904" cy="713.6109" fill="#84BE84" rx="1.8" ry="1.8" style="stroke:#038048;stroke-width:0.6;"/><text fill="#000000" font-family="sans-serif" font-size="8.4" lengthAdjust="spacing" textLength="160.6131" x="344.304" y="716.1891">void setValidMovements(List&lt;Coordinate&gt;)</text><ellipse cx="338.904" cy="724.7836" fill="#84BE84" rx="1.8" ry="1.8" style="stroke:#038048;stroke-width:0.6;"/><text fill="#000000" font-family="sans-serif" font-size="8.4" lengthAdjust="spacing" textLength="109.7291" x="344.304" y="727.3617">void addPassantPawn(Piece)</text><ellipse cx="338.904" cy="735.9563" fill="#84BE84" rx="1.8" ry="1.8" style="stroke:#038048;stroke-width:0.6;"/><text fill="#000000" font-family="sans-serif" font-size="8.4" lengthAdjust="spacing" textLength="77.9543" x="344.304" y="738.5344">Color currentPlayer()</text><ellipse cx="338.904" cy="747.1289" fill="#84BE84" rx="1.8" ry="1.8" style="stroke:#038048;stroke-width:0.6;"/><text fill="#000000" font-family="sans-serif" font-size="8.4" lengthAdjust="spacing" textLength="67.2123" x="344.304" y="749.707">Color rivalPlayer()</text><ellipse cx="338.904" cy="758.3016" fill="#84BE84" rx="1.8" ry="1.8" style="stroke:#038048;stroke-width:0.6;"/><text fill="#000000" font-family="sans-serif" font-size="8.4" lengthAdjust="spacing" textLength="50.8963" x="344.304" y="760.8797">void change()</text><ellipse cx="338.904" cy="769.4742" fill="#84BE84" rx="1.8" ry="1.8" style="stroke:#038048;stroke-width:0.6;"/><text fill="#000000" font-family="sans-serif" font-size="8.4" lengthAdjust="spacing" textLength="66.7775" x="344.304" y="772.0523">boolean finished()</text></g><!--class Game--><g id="elem_Game"><rect codeLine="75" fill="#F1F1F1" height="207.5625" id="Game" rx="1.5" ry="1.5" style="stroke:#181818;stroke-width:0.3;" width="190.2322" x="218.604" y="157.8082"/><ellipse cx="299.7329" cy="167.4082" fill="#ADD1B2" rx="6.6" ry="6.6" style="stroke:#181818;stroke-width:0.6;"/><path d="M301.3923,164.9332 Q301.486,164.802 301.5985,164.7363 Q301.711,164.6707 301.8423,164.6707 Q302.0673,164.6707 302.2079,164.8301 Q302.3485,164.9801 302.3485,165.3457 L302.3485,166.2176 Q302.3485,166.5832 302.2079,166.7426 Q302.0673,166.902 301.8423,166.902 Q301.636,166.902 301.5142,166.7801 Q301.3923,166.6676 301.3267,166.3582 Q301.2985,166.1426 301.186,166.0301 Q300.9892,165.8051 300.6235,165.6738 Q300.2579,165.5426 299.8829,165.5426 Q299.4235,165.5426 299.0392,165.7395 Q298.6642,165.9363 298.3642,166.3863 Q298.0735,166.8363 298.0735,167.4551 L298.0735,168.1113 Q298.0735,168.852 298.6079,169.3488 Q299.1423,169.8363 300.0985,169.8363 Q300.661,169.8363 301.0548,169.6863 Q301.2892,169.5926 301.5423,169.3301 Q301.7017,169.1707 301.786,169.1238 Q301.8798,169.077 302.0017,169.077 Q302.1985,169.077 302.3485,169.2363 Q302.5079,169.3863 302.5079,169.5926 Q302.5079,169.7988 302.3017,170.0426 Q302.0017,170.3895 301.5235,170.5863 Q300.8767,170.8582 300.0985,170.8582 Q299.1892,170.8582 298.4673,170.4832 Q297.8767,170.1832 297.4642,169.5457 Q297.0517,168.8988 297.0517,168.1301 L297.0517,167.4363 Q297.0517,166.6395 297.4173,165.9551 Q297.7923,165.2613 298.4485,164.8957 Q299.1048,164.5207 299.8454,164.5207 Q300.286,164.5207 300.6704,164.6238 Q301.0642,164.7176 301.3923,164.9332 Z " fill="#000000"/><text fill="#000000" font-family="sans-serif" font-size="8.4" lengthAdjust="spacing" textLength="22.8744" x="312.0329" y="170.8863">Game</text><line style="stroke:#181818;stroke-width:0.3;" x1="219.204" x2="408.2362" y1="177.0082" y2="177.0082"/><rect fill="none" height="3.6" style="stroke:#C82930;stroke-width:0.6;" width="3.6" x="223.404" y="184.0945"/><text fill="#000000" font-family="sans-serif" font-size="8.4" lengthAdjust="spacing" textLength="46.2328" x="230.604" y="188.4727">Board board</text><line style="stroke:#181818;stroke-width:0.3;" x1="219.204" x2="408.2362" y1="192.9809" y2="192.9809"/><ellipse cx="225.204" cy="201.8672" fill="#84BE84" rx="1.8" ry="1.8" style="stroke:#038048;stroke-width:0.6;"/><text fill="#000000" font-family="sans-serif" font-size="8.4" lengthAdjust="spacing" textLength="76.1086" x="230.604" y="204.4453">void put(Coordinate)</text><ellipse cx="225.204" cy="213.0398" fill="#84BE84" rx="1.8" ry="1.8" style="stroke:#038048;stroke-width:0.6;"/><text fill="#000000" font-family="sans-serif" font-size="8.4" lengthAdjust="spacing" textLength="86.3748" x="230.604" y="215.618">void select(Coordinate)</text><ellipse cx="225.204" cy="224.2125" fill="#84BE84" rx="1.8" ry="1.8" style="stroke:#038048;stroke-width:0.6;"/><text fill="#000000" font-family="sans-serif" font-size="8.4" lengthAdjust="spacing" textLength="108.7898" x="230.604" y="226.7906">boolean isEmpty(Coordinate)</text><ellipse cx="225.204" cy="235.3852" fill="#84BE84" rx="1.8" ry="1.8" style="stroke:#038048;stroke-width:0.6;"/><text fill="#000000" font-family="sans-serif" font-size="8.4" lengthAdjust="spacing" textLength="142.8779" x="230.604" y="237.9633">boolean isMovementValid(Coordinate)</text><ellipse cx="225.204" cy="246.5578" fill="#84BE84" rx="1.8" ry="1.8" style="stroke:#038048;stroke-width:0.6;"/><text fill="#000000" font-family="sans-serif" font-size="8.4" lengthAdjust="spacing" textLength="165.2725" x="230.604" y="249.1359">void removeCurrentPlayerPiece(Coordinate)</text><ellipse cx="225.204" cy="257.7305" fill="#84BE84" rx="1.8" ry="1.8" style="stroke:#038048;stroke-width:0.6;"/><text fill="#000000" font-family="sans-serif" font-size="8.4" lengthAdjust="spacing" textLength="155.9332" x="230.604" y="260.3086">void removeRivalPlayerPiece(Coordinate)</text><ellipse cx="225.204" cy="268.9031" fill="#84BE84" rx="1.8" ry="1.8" style="stroke:#038048;stroke-width:0.6;"/><text fill="#000000" font-family="sans-serif" font-size="8.4" lengthAdjust="spacing" textLength="91.4977" x="230.604" y="271.4813">Color getCurrentPlayer()</text><ellipse cx="225.204" cy="280.0758" fill="#84BE84" rx="1.8" ry="1.8" style="stroke:#038048;stroke-width:0.6;"/><text fill="#000000" font-family="sans-serif" font-size="8.4" lengthAdjust="spacing" textLength="82.1584" x="230.604" y="282.6539">Color getRivalPlayer()</text><ellipse cx="225.204" cy="291.2484" fill="#84BE84" rx="1.8" ry="1.8" style="stroke:#038048;stroke-width:0.6;"/><text fill="#000000" font-family="sans-serif" font-size="8.4" lengthAdjust="spacing" textLength="50.8963" x="230.604" y="293.8266">void change()</text><ellipse cx="225.204" cy="302.4211" fill="#84BE84" rx="1.8" ry="1.8" style="stroke:#038048;stroke-width:0.6;"/><text fill="#000000" font-family="sans-serif" font-size="8.4" lengthAdjust="spacing" textLength="174.6322" x="230.604" y="304.9992">boolean isTheWhitePieceSelected(Coordinate)</text><ellipse cx="225.204" cy="313.5938" fill="#84BE84" rx="1.8" ry="1.8" style="stroke:#038048;stroke-width:0.6;"/><text fill="#000000" font-family="sans-serif" font-size="8.4" lengthAdjust="spacing" textLength="173.7012" x="230.604" y="316.1719">boolean isTheBlackPieceSelected(Coordinate)</text><ellipse cx="225.204" cy="324.7664" fill="#84BE84" rx="1.8" ry="1.8" style="stroke:#038048;stroke-width:0.6;"/><text fill="#000000" font-family="sans-serif" font-size="8.4" lengthAdjust="spacing" textLength="53.2178" x="230.604" y="327.3445">void initialize()</text><ellipse cx="225.204" cy="335.9391" fill="#84BE84" rx="1.8" ry="1.8" style="stroke:#038048;stroke-width:0.6;"/><text fill="#000000" font-family="sans-serif" font-size="8.4" lengthAdjust="spacing" textLength="43.8908" x="230.604" y="338.5172">void begin()</text><ellipse cx="225.204" cy="347.1117" fill="#84BE84" rx="1.8" ry="1.8" style="stroke:#038048;stroke-width:0.6;"/><text fill="#000000" font-family="sans-serif" font-size="8.4" lengthAdjust="spacing" textLength="37.3529" x="230.604" y="349.6898">void end()</text><ellipse cx="225.204" cy="358.2844" fill="#84BE84" rx="1.8" ry="1.8" style="stroke:#038048;stroke-width:0.6;"/><text fill="#000000" font-family="sans-serif" font-size="8.4" lengthAdjust="spacing" textLength="36.4096" x="230.604" y="360.8625">void exit()</text></g><!--class Turn--><g id="elem_Turn"><rect codeLine="137" fill="#F1F1F1" height="73.4906" id="Turn" rx="1.5" ry="1.5" style="stroke:#181818;stroke-width:0.3;" width="75.3516" x="86.304" y="1061.7082"/><ellipse cx="112.7999" cy="1071.3082" fill="#ADD1B2" rx="6.6" ry="6.6" style="stroke:#181818;stroke-width:0.6;"/><path d="M114.4593,1068.8332 Q114.5531,1068.702 114.6656,1068.6363 Q114.7781,1068.5707 114.9093,1068.5707 Q115.1343,1068.5707 115.2749,1068.7301 Q115.4156,1068.8801 115.4156,1069.2457 L115.4156,1070.1176 Q115.4156,1070.4832 115.2749,1070.6426 Q115.1343,1070.802 114.9093,1070.802 Q114.7031,1070.802 114.5812,1070.6801 Q114.4593,1070.5676 114.3937,1070.2582 Q114.3656,1070.0426 114.2531,1069.9301 Q114.0562,1069.7051 113.6906,1069.5738 Q113.3249,1069.4426 112.9499,1069.4426 Q112.4906,1069.4426 112.1062,1069.6395 Q111.7312,1069.8363 111.4312,1070.2863 Q111.1406,1070.7363 111.1406,1071.3551 L111.1406,1072.0113 Q111.1406,1072.752 111.6749,1073.2488 Q112.2093,1073.7363 113.1656,1073.7363 Q113.7281,1073.7363 114.1218,1073.5863 Q114.3562,1073.4926 114.6093,1073.2301 Q114.7687,1073.0707 114.8531,1073.0238 Q114.9468,1072.977 115.0687,1072.977 Q115.2656,1072.977 115.4156,1073.1363 Q115.5749,1073.2863 115.5749,1073.4926 Q115.5749,1073.6988 115.3687,1073.9426 Q115.0687,1074.2895 114.5906,1074.4863 Q113.9437,1074.7582 113.1656,1074.7582 Q112.2562,1074.7582 111.5343,1074.3832 Q110.9437,1074.0832 110.5312,1073.4457 Q110.1187,1072.7988 110.1187,1072.0301 L110.1187,1071.3363 Q110.1187,1070.5395 110.4843,1069.8551 Q110.8593,1069.1613 111.5156,1068.7957 Q112.1718,1068.4207 112.9124,1068.4207 Q113.3531,1068.4207 113.7374,1068.5238 Q114.1312,1068.6176 114.4593,1068.8332 Z " fill="#000000"/><text fill="#000000" font-family="sans-serif" font-size="8.4" lengthAdjust="spacing" textLength="17.2717" x="125.0879" y="1074.7863">Turn</text><line style="stroke:#181818;stroke-width:0.3;" x1="86.904" x2="161.0556" y1="1080.9082" y2="1080.9082"/><rect fill="none" height="3.6" style="stroke:#C82930;stroke-width:0.6;" width="3.6" x="91.104" y="1087.9945"/><text fill="#000000" font-family="sans-serif" font-size="8.4" lengthAdjust="spacing" textLength="31.2867" x="98.304" y="1092.3727">int value</text><line style="stroke:#181818;stroke-width:0.3;" x1="86.904" x2="161.0556" y1="1096.8809" y2="1096.8809"/><ellipse cx="92.904" cy="1105.7672" fill="#84BE84" rx="1.8" ry="1.8" style="stroke:#038048;stroke-width:0.6;"/><text fill="#000000" font-family="sans-serif" font-size="8.4" lengthAdjust="spacing" textLength="59.7516" x="98.304" y="1108.3453">Color getColor()</text><ellipse cx="92.904" cy="1116.9398" fill="#84BE84" rx="1.8" ry="1.8" style="stroke:#038048;stroke-width:0.6;"/><text fill="#000000" font-family="sans-serif" font-size="8.4" lengthAdjust="spacing" textLength="50.8963" x="98.304" y="1119.518">void change()</text><ellipse cx="92.904" cy="1128.1125" fill="#84BE84" rx="1.8" ry="1.8" style="stroke:#038048;stroke-width:0.6;"/><text fill="#000000" font-family="sans-serif" font-size="8.4" lengthAdjust="spacing" textLength="45.2813" x="98.304" y="1130.6906">Turn clone()</text></g><!--class SubjectBoard--><g id="elem_SubjectBoard"><rect codeLine="144" fill="#F1F1F1" height="95.8359" id="SubjectBoard" rx="1.5" ry="1.5" style="stroke:#181818;stroke-width:0.3;" width="109.4314" x="374.304" y="25.8082"/><ellipse cx="401.2533" cy="35.4082" fill="#ADD1B2" rx="6.6" ry="6.6" style="stroke:#181818;stroke-width:0.6;"/><path d="M402.9127,32.9332 Q403.0064,32.802 403.1189,32.7363 Q403.2314,32.6707 403.3627,32.6707 Q403.5877,32.6707 403.7283,32.8301 Q403.8689,32.9801 403.8689,33.3457 L403.8689,34.2176 Q403.8689,34.5832 403.7283,34.7426 Q403.5877,34.902 403.3627,34.902 Q403.1564,34.902 403.0346,34.7801 Q402.9127,34.6676 402.8471,34.3582 Q402.8189,34.1426 402.7064,34.0301 Q402.5096,33.8051 402.1439,33.6738 Q401.7783,33.5426 401.4033,33.5426 Q400.9439,33.5426 400.5596,33.7395 Q400.1846,33.9363 399.8846,34.3863 Q399.5939,34.8363 399.5939,35.4551 L399.5939,36.1113 Q399.5939,36.852 400.1283,37.3488 Q400.6627,37.8363 401.6189,37.8363 Q402.1814,37.8363 402.5752,37.6863 Q402.8096,37.5926 403.0627,37.3301 Q403.2221,37.1707 403.3064,37.1238 Q403.4002,37.077 403.5221,37.077 Q403.7189,37.077 403.8689,37.2363 Q404.0283,37.3863 404.0283,37.5926 Q404.0283,37.7988 403.8221,38.0426 Q403.5221,38.3895 403.0439,38.5863 Q402.3971,38.8582 401.6189,38.8582 Q400.7096,38.8582 399.9877,38.4832 Q399.3971,38.1832 398.9846,37.5457 Q398.5721,36.8988 398.5721,36.1301 L398.5721,35.4363 Q398.5721,34.6395 398.9377,33.9551 Q399.3127,33.2613 399.9689,32.8957 Q400.6252,32.5207 401.3658,32.5207 Q401.8064,32.5207 402.1908,32.6238 Q402.5846,32.7176 402.9127,32.9332 Z " fill="#000000"/><text fill="#000000" font-family="sans-serif" font-size="8.4" lengthAdjust="spacing" textLength="50.4328" x="413.5533" y="38.8863">SubjectBoard</text><line style="stroke:#181818;stroke-width:0.3;" x1="374.904" x2="483.1354" y1="45.0082" y2="45.0082"/><rect fill="none" height="3.6" style="stroke:#C82930;stroke-width:0.6;" width="3.6" x="379.104" y="52.0945"/><text fill="#000000" font-family="sans-serif" font-size="8.4" lengthAdjust="spacing" textLength="69.5584" x="386.304" y="56.4727">Observer observer</text><line style="stroke:#181818;stroke-width:0.3;" x1="374.904" x2="483.1354" y1="60.9809" y2="60.9809"/><ellipse cx="380.904" cy="69.8672" fill="#84BE84" rx="1.8" ry="1.8" style="stroke:#038048;stroke-width:0.6;"/><text fill="#000000" font-family="sans-serif" font-size="8.4" lengthAdjust="spacing" textLength="93.8314" x="386.304" y="72.4453">void subscribe(Observer)</text><ellipse cx="380.904" cy="81.0398" fill="#84BE84" rx="1.8" ry="1.8" style="stroke:#038048;stroke-width:0.6;"/><text fill="#000000" font-family="sans-serif" font-size="8.4" lengthAdjust="spacing" textLength="53.2178" x="386.304" y="83.618">void initialize()</text><ellipse cx="380.904" cy="92.2125" fill="#84BE84" rx="1.8" ry="1.8" style="stroke:#038048;stroke-width:0.6;"/><text fill="#000000" font-family="sans-serif" font-size="8.4" lengthAdjust="spacing" textLength="43.8908" x="386.304" y="94.7906">void begin()</text><ellipse cx="380.904" cy="103.3852" fill="#84BE84" rx="1.8" ry="1.8" style="stroke:#038048;stroke-width:0.6;"/><text fill="#000000" font-family="sans-serif" font-size="8.4" lengthAdjust="spacing" textLength="37.3529" x="386.304" y="105.9633">void end()</text><ellipse cx="380.904" cy="114.5578" fill="#84BE84" rx="1.8" ry="1.8" style="stroke:#038048;stroke-width:0.6;"/><text fill="#000000" font-family="sans-serif" font-size="8.4" lengthAdjust="spacing" textLength="36.4096" x="386.304" y="117.1359">void exit()</text></g><!--class Cloneable--><g id="elem_Cloneable"><rect fill="#F1F1F1" height="28.8" id="Cloneable" rx="1.5" ry="1.5" style="stroke:#181818;stroke-width:0.3;" width="57.0287" x="69.204" y="868.2082"/><ellipse cx="78.204" cy="877.8082" fill="#ADD1B2" rx="6.6" ry="6.6" style="stroke:#181818;stroke-width:0.6;"/><path d="M79.8634,875.3332 Q79.9571,875.202 80.0696,875.1363 Q80.1821,875.0707 80.3134,875.0707 Q80.5384,875.0707 80.679,875.2301 Q80.8196,875.3801 80.8196,875.7457 L80.8196,876.6176 Q80.8196,876.9832 80.679,877.1426 Q80.5384,877.302 80.3134,877.302 Q80.1071,877.302 79.9853,877.1801 Q79.8634,877.0676 79.7978,876.7582 Q79.7696,876.5426 79.6571,876.4301 Q79.4603,876.2051 79.0946,876.0738 Q78.729,875.9426 78.354,875.9426 Q77.8946,875.9426 77.5103,876.1395 Q77.1353,876.3363 76.8353,876.7863 Q76.5446,877.2363 76.5446,877.8551 L76.5446,878.5113 Q76.5446,879.252 77.079,879.7488 Q77.6134,880.2363 78.5696,880.2363 Q79.1321,880.2363 79.5259,880.0863 Q79.7603,879.9926 80.0134,879.7301 Q80.1728,879.5707 80.2571,879.5238 Q80.3509,879.477 80.4728,879.477 Q80.6696,879.477 80.8196,879.6363 Q80.979,879.7863 80.979,879.9926 Q80.979,880.1988 80.7728,880.4426 Q80.4728,880.7895 79.9946,880.9863 Q79.3478,881.2582 78.5696,881.2582 Q77.6603,881.2582 76.9384,880.8832 Q76.3478,880.5832 75.9353,879.9457 Q75.5228,879.2988 75.5228,878.5301 L75.5228,877.8363 Q75.5228,877.0395 75.8884,876.3551 Q76.2634,875.6613 76.9196,875.2957 Q77.5759,874.9207 78.3165,874.9207 Q78.7571,874.9207 79.1415,875.0238 Q79.5353,875.1176 79.8634,875.3332 Z " fill="#000000"/><text fill="#000000" font-family="sans-serif" font-size="8.4" lengthAdjust="spacing" textLength="37.8287" x="86.604" y="881.2863">Cloneable</text><line style="stroke:#181818;stroke-width:0.3;" x1="69.804" x2="125.6327" y1="887.4082" y2="887.4082"/><line style="stroke:#181818;stroke-width:0.3;" x1="69.804" x2="125.6327" y1="892.2082" y2="892.2082"/></g><!--class SelectablePiece--><g id="elem_SelectablePiece"><rect codeLine="2" fill="#F1F1F1" height="73.4906" id="SelectablePiece" rx="1.5" ry="1.5" style="stroke:#181818;stroke-width:0.3;" width="158.4779" x="441.504" y="846.0082"/><ellipse cx="488.0731" cy="855.6082" fill="#B4A7E5" rx="6.6" ry="6.6" style="stroke:#181818;stroke-width:0.6;"/><path d="M488.645,853.5926 L488.645,857.5863 L489.6763,857.5863 Q490.0419,857.5863 490.2013,857.727 Q490.3606,857.8676 490.3606,858.102 Q490.3606,858.327 490.2013,858.4676 Q490.0419,858.6082 489.6763,858.6082 L486.5919,858.6082 Q486.2263,858.6082 486.0669,858.4676 Q485.9075,858.327 485.9075,858.0926 Q485.9075,857.8676 486.0669,857.727 Q486.2263,857.5863 486.5919,857.5863 L487.6231,857.5863 L487.6231,853.5926 L486.5919,853.5926 Q486.2263,853.5926 486.0669,853.452 Q485.9075,853.3113 485.9075,853.077 Q485.9075,852.852 486.0669,852.7113 Q486.2263,852.5707 486.5919,852.5707 L489.6763,852.5707 Q490.0419,852.5707 490.2013,852.7113 Q490.3606,852.852 490.3606,853.077 Q490.3606,853.3113 490.2013,853.452 Q490.0419,853.5926 489.6763,853.5926 L488.645,853.5926 Z " fill="#000000"/><text fill="#000000" font-family="sans-serif" font-size="8.4" font-style="italic" lengthAdjust="spacing" textLength="60.2396" x="500.3731" y="859.0863">SelectablePiece</text><line style="stroke:#181818;stroke-width:0.3;" x1="442.104" x2="599.3819" y1="865.2082" y2="865.2082"/><line style="stroke:#181818;stroke-width:0.3;" x1="442.104" x2="599.3819" y1="870.0082" y2="870.0082"/><polygon fill="#4177AF" points="448.104,876.4945,445.704,880.0945,450.504,880.0945" style="stroke:#1963A0;stroke-width:0.6;"/><text fill="#000000" font-family="sans-serif" font-size="8.4" lengthAdjust="spacing" textLength="76.1086" x="453.504" y="881.4727">void put(Coordinate)</text><polygon fill="#4177AF" points="448.104,887.6672,445.704,891.2672,450.504,891.2672" style="stroke:#1963A0;stroke-width:0.6;"/><text fill="#000000" font-family="sans-serif" font-size="8.4" lengthAdjust="spacing" textLength="142.8779" x="453.504" y="892.6453">boolean isMovementValid(Coordinate)</text><polygon fill="#4177AF" points="448.104,898.8398,445.704,902.4398,450.504,902.4398" style="stroke:#1963A0;stroke-width:0.6;"/><text fill="#000000" font-family="sans-serif" font-size="8.4" lengthAdjust="spacing" textLength="105.5086" x="453.504" y="903.818">void notifyValidMovements()</text><polygon fill="#4177AF" points="448.104,910.0125,445.704,913.6125,450.504,913.6125" style="stroke:#1963A0;stroke-width:0.6;"/><text fill="#000000" font-family="sans-serif" font-size="8.4" lengthAdjust="spacing" textLength="130.7332" x="453.504" y="914.9906">boolean isPawnAtPromotionRank()</text></g><!--class PiecesBuilder--><g id="elem_PiecesBuilder"><rect codeLine="9" fill="#F1F1F1" height="28.8" id="PiecesBuilder" rx="1.5" ry="1.5" style="stroke:#181818;stroke-width:0.3;" width="70.5598" x="659.304" y="1083.9082"/><ellipse cx="668.304" cy="1093.5082" fill="#ADD1B2" rx="6.6" ry="6.6" style="stroke:#181818;stroke-width:0.6;"/><path d="M669.9634,1091.0332 Q670.0571,1090.902 670.1696,1090.8363 Q670.2821,1090.7707 670.4134,1090.7707 Q670.6384,1090.7707 670.779,1090.9301 Q670.9196,1091.0801 670.9196,1091.4457 L670.9196,1092.3176 Q670.9196,1092.6832 670.779,1092.8426 Q670.6384,1093.002 670.4134,1093.002 Q670.2071,1093.002 670.0853,1092.8801 Q669.9634,1092.7676 669.8978,1092.4582 Q669.8696,1092.2426 669.7571,1092.1301 Q669.5602,1091.9051 669.1946,1091.7738 Q668.829,1091.6426 668.454,1091.6426 Q667.9946,1091.6426 667.6103,1091.8395 Q667.2353,1092.0363 666.9352,1092.4863 Q666.6446,1092.9363 666.6446,1093.5551 L666.6446,1094.2113 Q666.6446,1094.952 667.179,1095.4488 Q667.7134,1095.9363 668.6696,1095.9363 Q669.2321,1095.9363 669.6259,1095.7863 Q669.8603,1095.6926 670.1134,1095.4301 Q670.2728,1095.2707 670.3571,1095.2238 Q670.4509,1095.177 670.5727,1095.177 Q670.7696,1095.177 670.9196,1095.3363 Q671.079,1095.4863 671.079,1095.6926 Q671.079,1095.8988 670.8727,1096.1426 Q670.5727,1096.4895 670.0946,1096.6863 Q669.4477,1096.9582 668.6696,1096.9582 Q667.7602,1096.9582 667.0384,1096.5832 Q666.4477,1096.2832 666.0352,1095.6457 Q665.6227,1094.9988 665.6227,1094.2301 L665.6227,1093.5363 Q665.6227,1092.7395 665.9884,1092.0551 Q666.3634,1091.3613 667.0196,1090.9957 Q667.6759,1090.6207 668.4165,1090.6207 Q668.8571,1090.6207 669.2415,1090.7238 Q669.6352,1090.8176 669.9634,1091.0332 Z " fill="#000000"/><text fill="#000000" font-family="sans-serif" font-size="8.4" lengthAdjust="spacing" textLength="51.3598" x="676.704" y="1096.9863">PiecesBuilder</text><line style="stroke:#181818;stroke-width:0.3;" x1="659.904" x2="729.2638" y1="1103.1082" y2="1103.1082"/><line style="stroke:#181818;stroke-width:0.3;" x1="659.904" x2="729.2638" y1="1107.9082" y2="1107.9082"/></g><!--class Color--><g id="elem_Color"><rect codeLine="12" fill="#F1F1F1" height="28.8" id="Color" rx="1.5" ry="1.5" style="stroke:#181818;stroke-width:0.3;" width="39.273" x="181.404" y="1251.9082"/><ellipse cx="190.404" cy="1261.5082" fill="#EB937F" rx="6.6" ry="6.6" style="stroke:#181818;stroke-width:0.6;"/><path d="M189.7196,1261.9863 L189.7196,1263.4863 L192.3165,1263.4863 L192.3165,1262.9332 Q192.3165,1262.5676 192.4571,1262.4082 Q192.6071,1262.2488 192.8321,1262.2488 Q193.0571,1262.2488 193.1978,1262.4082 Q193.3384,1262.5676 193.3384,1262.9332 L193.3384,1264.5082 L188.5384,1264.5082 Q188.1634,1264.5082 188.004,1264.3676 Q187.854,1264.227 187.854,1263.9926 Q187.854,1263.7676 188.0134,1263.627 Q188.1728,1263.4863 188.5384,1263.4863 L188.6978,1263.4863 L188.6978,1259.4926 L188.5384,1259.4926 Q188.1634,1259.4926 188.004,1259.352 Q187.854,1259.2113 187.854,1258.977 Q187.854,1258.752 188.004,1258.6113 Q188.1634,1258.4707 188.5384,1258.4707 L193.1134,1258.4707 L193.1134,1260.027 Q193.1134,1260.3926 192.9728,1260.552 Q192.8415,1260.702 192.6071,1260.702 Q192.3821,1260.702 192.2415,1260.552 Q192.1009,1260.3926 192.1009,1260.027 L192.1009,1259.4926 L189.7196,1259.4926 L189.7196,1260.9645 L190.6103,1260.9645 Q190.6103,1260.5707 190.6853,1260.4582 Q190.8446,1260.2145 191.1259,1260.2145 Q191.3509,1260.2145 191.4915,1260.3738 Q191.6321,1260.5238 191.6321,1260.8895 L191.6321,1262.0707 Q191.6321,1262.3988 191.5571,1262.5113 Q191.3978,1262.7457 191.1259,1262.7457 Q190.8446,1262.7457 190.6853,1262.502 Q190.6103,1262.3895 190.6103,1261.9863 L189.7196,1261.9863 Z " fill="#000000"/><text fill="#000000" font-family="sans-serif" font-size="8.4" lengthAdjust="spacing" textLength="20.073" x="198.804" y="1264.9863">Color</text><line style="stroke:#181818;stroke-width:0.3;" x1="182.004" x2="220.077" y1="1271.1082" y2="1271.1082"/><line style="stroke:#181818;stroke-width:0.3;" x1="182.004" x2="220.077" y1="1275.9082" y2="1275.9082"/></g><!--class Coordinate--><g id="elem_Coordinate"><rect codeLine="22" fill="#F1F1F1" height="84.6633" id="Coordinate" rx="1.5" ry="1.5" style="stroke:#181818;stroke-width:0.3;" width="119.2547" x="552.204" y="1319.4082"/><ellipse cx="588.7346" cy="1329.0082" fill="#ADD1B2" rx="6.6" ry="6.6" style="stroke:#181818;stroke-width:0.6;"/><path d="M590.3939,1326.5332 Q590.4877,1326.402 590.6002,1326.3363 Q590.7127,1326.2707 590.8439,1326.2707 Q591.0689,1326.2707 591.2096,1326.4301 Q591.3502,1326.5801 591.3502,1326.9457 L591.3502,1327.8176 Q591.3502,1328.1832 591.2096,1328.3426 Q591.0689,1328.502 590.8439,1328.502 Q590.6377,1328.502 590.5158,1328.3801 Q590.3939,1328.2676 590.3283,1327.9582 Q590.3002,1327.7426 590.1877,1327.6301 Q589.9908,1327.4051 589.6252,1327.2738 Q589.2596,1327.1426 588.8846,1327.1426 Q588.4252,1327.1426 588.0408,1327.3395 Q587.6658,1327.5363 587.3658,1327.9863 Q587.0752,1328.4363 587.0752,1329.0551 L587.0752,1329.7113 Q587.0752,1330.452 587.6096,1330.9488 Q588.1439,1331.4363 589.1002,1331.4363 Q589.6627,1331.4363 590.0564,1331.2863 Q590.2908,1331.1926 590.5439,1330.9301 Q590.7033,1330.7707 590.7877,1330.7238 Q590.8814,1330.677 591.0033,1330.677 Q591.2002,1330.677 591.3502,1330.8363 Q591.5096,1330.9863 591.5096,1331.1926 Q591.5096,1331.3988 591.3033,1331.6426 Q591.0033,1331.9895 590.5252,1332.1863 Q589.8783,1332.4582 589.1002,1332.4582 Q588.1908,1332.4582 587.4689,1332.0832 Q586.8783,1331.7832 586.4658,1331.1457 Q586.0533,1330.4988 586.0533,1329.7301 L586.0533,1329.0363 Q586.0533,1328.2395 586.4189,1327.5551 Q586.7939,1326.8613 587.4502,1326.4957 Q588.1064,1326.1207 588.8471,1326.1207 Q589.2877,1326.1207 589.6721,1326.2238 Q590.0658,1326.3176 590.3939,1326.5332 Z " fill="#000000"/><text fill="#000000" font-family="sans-serif" font-size="8.4" lengthAdjust="spacing" textLength="41.0936" x="601.0346" y="1332.4863">Coordinate</text><line style="stroke:#181818;stroke-width:0.3;" x1="552.804" x2="670.8587" y1="1338.6082" y2="1338.6082"/><rect fill="none" height="3.6" style="stroke:#C82930;stroke-width:0.6;" width="3.6" x="557.004" y="1345.6945"/><text fill="#000000" font-family="sans-serif" font-size="8.4" lengthAdjust="spacing" textLength="24.7406" x="564.204" y="1350.0727">int row</text><rect fill="none" height="3.6" style="stroke:#C82930;stroke-width:0.6;" width="3.6" x="557.004" y="1356.8672"/><text fill="#000000" font-family="sans-serif" font-size="8.4" lengthAdjust="spacing" textLength="38.284" x="564.204" y="1361.2453">int column</text><line style="stroke:#181818;stroke-width:0.3;" x1="552.804" x2="670.8587" y1="1365.7535" y2="1365.7535"/><ellipse cx="558.804" cy="1374.6398" fill="#84BE84" rx="1.8" ry="1.8" style="stroke:#038048;stroke-width:0.6;"/><text fill="#000000" font-family="sans-serif" font-size="8.4" lengthAdjust="spacing" textLength="103.6547" x="564.204" y="1377.218">&#171;Create&#187; Coordinate(int,int)</text><ellipse cx="558.804" cy="1385.8125" fill="#84BE84" rx="1.8" ry="1.8" style="stroke:#038048;stroke-width:0.6;"/><text fill="#000000" font-family="sans-serif" font-size="8.4" lengthAdjust="spacing" textLength="92.4492" x="564.204" y="1388.3906">&#171;Create&#187; Coordinate(int)</text><ellipse cx="558.804" cy="1396.9852" fill="#84BE84" rx="1.8" ry="1.8" style="stroke:#038048;stroke-width:0.6;"/><text fill="#000000" font-family="sans-serif" font-size="8.4" lengthAdjust="spacing" textLength="83.5775" x="564.204" y="1399.5633">&#171;Create&#187; Coordinate()</text></g><!--class ObserverBoard--><g id="elem_ObserverBoard"><rect codeLine="64" fill="#F1F1F1" height="118.1812" id="ObserverBoard" rx="1.5" ry="1.5" style="stroke:#181818;stroke-width:0.3;" width="178.0916" x="751.404" y="1039.2082"/><ellipse cx="809.4206" cy="1048.8082" fill="#B4A7E5" rx="6.6" ry="6.6" style="stroke:#181818;stroke-width:0.6;"/><path d="M809.9925,1046.7926 L809.9925,1050.7863 L811.0237,1050.7863 Q811.3894,1050.7863 811.5487,1050.927 Q811.7081,1051.0676 811.7081,1051.302 Q811.7081,1051.527 811.5487,1051.6676 Q811.3894,1051.8082 811.0237,1051.8082 L807.9394,1051.8082 Q807.5737,1051.8082 807.4144,1051.6676 Q807.255,1051.527 807.255,1051.2926 Q807.255,1051.0676 807.4144,1050.927 Q807.5737,1050.7863 807.9394,1050.7863 L808.9706,1050.7863 L808.9706,1046.7926 L807.9394,1046.7926 Q807.5737,1046.7926 807.4144,1046.652 Q807.255,1046.5113 807.255,1046.277 Q807.255,1046.052 807.4144,1045.9113 Q807.5737,1045.7707 807.9394,1045.7707 L811.0237,1045.7707 Q811.3894,1045.7707 811.5487,1045.9113 Q811.7081,1046.052 811.7081,1046.277 Q811.7081,1046.5113 811.5487,1046.652 Q811.3894,1046.7926 811.0237,1046.7926 L809.9925,1046.7926 Z " fill="#000000"/><text fill="#000000" font-family="sans-serif" font-size="8.4" font-style="italic" lengthAdjust="spacing" textLength="56.9584" x="821.7206" y="1052.2863">ObserverBoard</text><line style="stroke:#181818;stroke-width:0.3;" x1="752.004" x2="928.8956" y1="1058.4082" y2="1058.4082"/><line style="stroke:#181818;stroke-width:0.3;" x1="752.004" x2="928.8956" y1="1063.2082" y2="1063.2082"/><polygon fill="#4177AF" points="758.004,1069.6945,755.604,1073.2945,760.404,1073.2945" style="stroke:#1963A0;stroke-width:0.6;"/><text fill="#000000" font-family="sans-serif" font-size="8.4" lengthAdjust="spacing" textLength="110.2008" x="763.404" y="1074.6727">boolean isPieceEndBoardAt()</text><polygon fill="#4177AF" points="758.004,1080.8672,755.604,1084.4672,760.404,1084.4672" style="stroke:#1963A0;stroke-width:0.6;"/><text fill="#000000" font-family="sans-serif" font-size="8.4" lengthAdjust="spacing" textLength="92.9168" x="763.404" y="1085.8453">void setPieceEndBoard()</text><polygon fill="#4177AF" points="758.004,1092.0398,755.604,1095.6398,760.404,1095.6398" style="stroke:#1963A0;stroke-width:0.6;"/><text fill="#000000" font-family="sans-serif" font-size="8.4" lengthAdjust="spacing" textLength="151.2943" x="763.404" y="1097.018">boolean isPieceEndBoardAt(Coordinate)</text><polygon fill="#4177AF" points="758.004,1103.2125,755.604,1106.8125,760.404,1106.8125" style="stroke:#1963A0;stroke-width:0.6;"/><text fill="#000000" font-family="sans-serif" font-size="8.4" lengthAdjust="spacing" textLength="115.7953" x="763.404" y="1108.1906">boolean isItEnemy(Coordinate)</text><polygon fill="#4177AF" points="758.004,1114.3852,755.604,1117.9852,760.404,1117.9852" style="stroke:#1963A0;stroke-width:0.6;"/><text fill="#000000" font-family="sans-serif" font-size="8.4" lengthAdjust="spacing" textLength="108.7898" x="763.404" y="1119.3633">boolean isEmpty(Coordinate)</text><polygon fill="#4177AF" points="758.004,1125.5578,755.604,1129.1578,760.404,1129.1578" style="stroke:#1963A0;stroke-width:0.6;"/><text fill="#000000" font-family="sans-serif" font-size="8.4" lengthAdjust="spacing" textLength="146.1428" x="763.404" y="1130.5359">boolean isItTheSameColor(Coordinate)</text><polygon fill="#4177AF" points="758.004,1136.7305,755.604,1140.3305,760.404,1140.3305" style="stroke:#1963A0;stroke-width:0.6;"/><text fill="#000000" font-family="sans-serif" font-size="8.4" lengthAdjust="spacing" textLength="162.4916" x="763.404" y="1141.7086">void setValidCoordinates(List&lt;Coordinate&gt;)</text><polygon fill="#4177AF" points="758.004,1147.9031,755.604,1151.5031,760.404,1151.5031" style="stroke:#1963A0;stroke-width:0.6;"/><text fill="#000000" font-family="sans-serif" font-size="8.4" lengthAdjust="spacing" textLength="147.5537" x="763.404" y="1152.8813">List&lt;Coordinate&gt; getValidCoordinates()</text></g><!--class SegregatedPiece--><g id="elem_SegregatedPiece"><rect codeLine="94" fill="#F1F1F1" height="140.5266" id="SegregatedPiece" rx="1.5" ry="1.5" style="stroke:#181818;stroke-width:0.3;" width="158.4779" x="262.104" y="812.4082"/><ellipse cx="306.569" cy="822.0082" fill="#B4A7E5" rx="6.6" ry="6.6" style="stroke:#181818;stroke-width:0.6;"/><path d="M307.1409,819.9926 L307.1409,823.9863 L308.1722,823.9863 Q308.5378,823.9863 308.6972,824.127 Q308.8565,824.2676 308.8565,824.502 Q308.8565,824.727 308.6972,824.8676 Q308.5378,825.0082 308.1722,825.0082 L305.0878,825.0082 Q304.7222,825.0082 304.5628,824.8676 Q304.4034,824.727 304.4034,824.4926 Q304.4034,824.2676 304.5628,824.127 Q304.7222,823.9863 305.0878,823.9863 L306.119,823.9863 L306.119,819.9926 L305.0878,819.9926 Q304.7222,819.9926 304.5628,819.852 Q304.4034,819.7113 304.4034,819.477 Q304.4034,819.252 304.5628,819.1113 Q304.7222,818.9707 305.0878,818.9707 L308.1722,818.9707 Q308.5378,818.9707 308.6972,819.1113 Q308.8565,819.252 308.8565,819.477 Q308.8565,819.7113 308.6972,819.852 Q308.5378,819.9926 308.1722,819.9926 L307.1409,819.9926 Z " fill="#000000"/><text fill="#000000" font-family="sans-serif" font-size="8.4" font-style="italic" lengthAdjust="spacing" textLength="64.4479" x="318.869" y="825.4863">SegregatedPiece</text><line style="stroke:#181818;stroke-width:0.3;" x1="262.704" x2="419.9819" y1="831.6082" y2="831.6082"/><line style="stroke:#181818;stroke-width:0.3;" x1="262.704" x2="419.9819" y1="836.4082" y2="836.4082"/><polygon fill="#4177AF" points="268.704,842.8945,266.304,846.4945,271.104,846.4945" style="stroke:#1963A0;stroke-width:0.6;"/><text fill="#000000" font-family="sans-serif" font-size="8.4" lengthAdjust="spacing" textLength="76.1086" x="274.104" y="847.8727">void put(Coordinate)</text><polygon fill="#4177AF" points="268.704,854.0672,266.304,857.6672,271.104,857.6672" style="stroke:#1963A0;stroke-width:0.6;"/><text fill="#000000" font-family="sans-serif" font-size="8.4" lengthAdjust="spacing" textLength="142.8779" x="274.104" y="859.0453">boolean isMovementValid(Coordinate)</text><polygon fill="#4177AF" points="268.704,865.2398,266.304,868.8398,271.104,868.8398" style="stroke:#1963A0;stroke-width:0.6;"/><text fill="#000000" font-family="sans-serif" font-size="8.4" lengthAdjust="spacing" textLength="130.7332" x="274.104" y="870.218">boolean isPawnAtPromotionRank()</text><polygon fill="#4177AF" points="268.704,876.4125,266.304,880.0125,271.104,880.0125" style="stroke:#1963A0;stroke-width:0.6;"/><text fill="#000000" font-family="sans-serif" font-size="8.4" lengthAdjust="spacing" textLength="82.1748" x="274.104" y="881.3906">boolean isNotMoved()</text><polygon fill="#4177AF" points="268.704,887.5852,266.304,891.1852,271.104,891.1852" style="stroke:#1963A0;stroke-width:0.6;"/><text fill="#000000" font-family="sans-serif" font-size="8.4" lengthAdjust="spacing" textLength="101.7926" x="274.104" y="892.5633">Coordinate getCoordinate()</text><polygon fill="#4177AF" points="268.704,898.7578,266.304,902.3578,271.104,902.3578" style="stroke:#1963A0;stroke-width:0.6;"/><text fill="#000000" font-family="sans-serif" font-size="8.4" lengthAdjust="spacing" textLength="59.7516" x="274.104" y="903.7359">Color getColor()</text><polygon fill="#4177AF" points="268.704,909.9305,266.304,913.5305,271.104,913.5305" style="stroke:#1963A0;stroke-width:0.6;"/><text fill="#000000" font-family="sans-serif" font-size="8.4" lengthAdjust="spacing" textLength="92.4615" x="274.104" y="914.9086">boolean has(Coordinate)</text><polygon fill="#4177AF" points="268.704,921.1031,266.304,924.7031,271.104,924.7031" style="stroke:#1963A0;stroke-width:0.6;"/><text fill="#000000" font-family="sans-serif" font-size="8.4" lengthAdjust="spacing" textLength="105.5086" x="274.104" y="926.0813">void notifyValidMovements()</text><polygon fill="#4177AF" points="268.704,932.2758,266.304,935.8758,271.104,935.8758" style="stroke:#1963A0;stroke-width:0.6;"/><text fill="#000000" font-family="sans-serif" font-size="8.4" lengthAdjust="spacing" textLength="60.7031" x="274.104" y="937.2539">boolean isKing()</text><polygon fill="#4177AF" points="268.704,943.4484,266.304,947.0484,271.104,947.0484" style="stroke:#1963A0;stroke-width:0.6;"/><text fill="#000000" font-family="sans-serif" font-size="8.4" lengthAdjust="spacing" textLength="63.5004" x="274.104" y="948.4266">boolean isRook()</text></g><!--class Piece--><g id="elem_Piece"><rect codeLine="108" fill="#F1F1F1" height="218.7352" id="Piece" rx="1.5" ry="1.5" style="stroke:#181818;stroke-width:0.3;" width="183.682" x="454.704" y="988.8082"/><ellipse cx="533.4889" cy="998.4082" fill="#A9DCDF" rx="6.6" ry="6.6" style="stroke:#181818;stroke-width:0.6;"/><path d="M534.8014,999.4676 L532.317,999.4676 L532.0639,1000.0863 L532.317,1000.0863 Q532.6826,1000.0863 532.842,1000.227 Q533.0014,1000.3676 533.0014,1000.602 Q533.0014,1000.827 532.842,1000.9676 Q532.6826,1001.1082 532.317,1001.1082 L530.9389,1001.1082 Q530.5732,1001.1082 530.4232,1000.9676 Q530.2639,1000.827 530.2639,1000.5926 Q530.2639,1000.3676 530.4326,1000.227 Q530.592,1000.077 530.967,1000.0863 L532.5701,996.0926 L531.9045,996.0926 Q531.5389,996.0926 531.3795,995.952 Q531.2201,995.8113 531.2201,995.577 Q531.2201,995.352 531.3795,995.2113 Q531.5389,995.0707 531.9045,995.0707 L534.1076,995.0707 L536.142,1000.0863 Q536.4982,1000.0863 536.6107,1000.1707 Q536.8451,1000.3301 536.8451,1000.602 Q536.8451,1000.827 536.6857,1000.9676 Q536.5357,1001.1082 536.1701,1001.1082 L534.792,1001.1082 Q534.4264,1001.1082 534.267,1000.9676 Q534.1076,1000.827 534.1076,1000.5926 Q534.1076,1000.3676 534.267,1000.227 Q534.4264,1000.0863 534.792,1000.0863 L535.0451,1000.0863 L534.8014,999.4676 Z M534.3701,998.4457 L533.5545,996.4207 L532.7295,998.4457 L534.3701,998.4457 Z " fill="#000000"/><text fill="#000000" font-family="sans-serif" font-size="8.4" font-style="italic" lengthAdjust="spacing" textLength="21.0123" x="545.7889" y="1001.8863">Piece</text><line style="stroke:#181818;stroke-width:0.3;" x1="455.304" x2="637.786" y1="1008.0082" y2="1008.0082"/><polygon fill="none" points="461.304,1013.8945,463.704,1016.2945,461.304,1018.6945,458.904,1016.2945" style="stroke:#B38D22;stroke-width:0.6;"/><text fill="#000000" font-family="sans-serif" font-size="8.4" lengthAdjust="spacing" textLength="168.082" x="466.704" y="1019.4727">PieceMovementManager movementManager</text><rect fill="none" height="3.6" style="stroke:#C82930;stroke-width:0.6;" width="3.6" x="459.504" y="1026.2672"/><text fill="#000000" font-family="sans-serif" font-size="8.4" lengthAdjust="spacing" textLength="82.6547" x="466.704" y="1030.6453">Coordinate coordinate</text><rect fill="none" height="3.6" style="stroke:#C82930;stroke-width:0.6;" width="3.6" x="459.504" y="1037.4398"/><text fill="#000000" font-family="sans-serif" font-size="8.4" lengthAdjust="spacing" textLength="40.6137" x="466.704" y="1041.818">Color color</text><line style="stroke:#181818;stroke-width:0.3;" x1="455.304" x2="637.786" y1="1046.3262" y2="1046.3262"/><polygon fill="#FFFF44" points="461.304,1052.2125,463.704,1054.6125,461.304,1057.0125,458.904,1054.6125" style="stroke:#B38D22;stroke-width:0.6;"/><text fill="#000000" font-family="sans-serif" font-size="8.4" lengthAdjust="spacing" textLength="75.6369" x="466.704" y="1057.7906">void set(Coordinate)</text><ellipse cx="461.304" cy="1066.3852" fill="#84BE84" rx="1.8" ry="1.8" style="stroke:#038048;stroke-width:0.6;"/><text fill="#000000" font-family="sans-serif" font-size="8.4" lengthAdjust="spacing" textLength="101.7926" x="466.704" y="1068.9633">Coordinate getCoordinate()</text><ellipse cx="461.304" cy="1077.5578" fill="#84BE84" rx="1.8" ry="1.8" style="stroke:#038048;stroke-width:0.6;"/><text fill="#000000" font-family="sans-serif" font-size="8.4" lengthAdjust="spacing" textLength="59.7516" x="466.704" y="1080.1359">Color getColor()</text><ellipse cx="461.304" cy="1088.7305" fill="#84BE84" rx="1.8" ry="1.8" style="stroke:#038048;stroke-width:0.6;"/><text fill="#000000" font-family="sans-serif" font-size="8.4" lengthAdjust="spacing" textLength="45.2813" x="466.704" y="1091.3086">int getRow()</text><ellipse cx="461.304" cy="1099.9031" fill="#84BE84" rx="1.8" ry="1.8" style="stroke:#038048;stroke-width:0.6;"/><text fill="#000000" font-family="sans-serif" font-size="8.4" lengthAdjust="spacing" textLength="57.4219" x="466.704" y="1102.4813">int getColumn()</text><ellipse cx="461.304" cy="1111.0758" fill="#84BE84" rx="1.8" ry="1.8" style="stroke:#038048;stroke-width:0.6;"/><text fill="#000000" font-family="sans-serif" font-size="8.4" lengthAdjust="spacing" textLength="125.6062" x="466.704" y="1113.6539">Coordinate displaced(Coordinate)</text><ellipse cx="461.304" cy="1122.2484" fill="#84BE84" rx="1.8" ry="1.8" style="stroke:#038048;stroke-width:0.6;"/><text fill="#000000" font-family="sans-serif" font-size="8.4" lengthAdjust="spacing" textLength="148.0172" x="466.704" y="1124.8266">Coordinate displaced(Coordinate,int,int)</text><ellipse cx="461.304" cy="1133.4211" fill="#84BE84" rx="1.8" ry="1.8" style="stroke:#038048;stroke-width:0.6;"/><text fill="#000000" font-family="sans-serif" font-size="8.4" lengthAdjust="spacing" textLength="92.4615" x="466.704" y="1135.9992">boolean has(Coordinate)</text><ellipse cx="461.304" cy="1144.5938" fill="#84BE84" rx="1.8" ry="1.8" style="stroke:#038048;stroke-width:0.6;"/><text fill="#000000" font-family="sans-serif" font-size="8.4" lengthAdjust="spacing" textLength="65.3625" x="466.704" y="1147.1719">boolean isWhite()</text><ellipse cx="461.304" cy="1155.7664" fill="#84BE84" rx="1.8" ry="1.8" style="stroke:#038048;stroke-width:0.6;"/><text fill="#000000" font-family="sans-serif" font-size="8.4" lengthAdjust="spacing" textLength="64.4314" x="466.704" y="1158.3445">boolean isBlack()</text><ellipse cx="461.304" cy="1166.9391" fill="#84BE84" rx="1.8" ry="1.8" style="stroke:#038048;stroke-width:0.6;"/><text fill="#000000" font-family="sans-serif" font-size="8.4" lengthAdjust="spacing" textLength="105.5086" x="466.704" y="1169.5172">void notifyValidMovements()</text><ellipse cx="461.304" cy="1178.1117" fill="#84BE84" rx="1.8" ry="1.8" style="stroke:#038048;stroke-width:0.6;"/><text fill="#000000" font-family="sans-serif" font-size="8.4" font-style="italic" lengthAdjust="spacing" textLength="76.1086" x="466.704" y="1180.6898">void put(Coordinate)</text><ellipse cx="461.304" cy="1189.2844" fill="#84BE84" rx="1.8" ry="1.8" style="stroke:#038048;stroke-width:0.6;"/><text fill="#000000" font-family="sans-serif" font-size="8.4" font-style="italic" lengthAdjust="spacing" textLength="142.8779" x="466.704" y="1191.8625">boolean isMovementValid(Coordinate)</text><ellipse cx="461.304" cy="1200.457" fill="#84BE84" rx="1.8" ry="1.8" style="stroke:#038048;stroke-width:0.6;"/><text fill="#000000" font-family="sans-serif" font-size="8.4" font-style="italic" lengthAdjust="spacing" textLength="60.7031" x="466.704" y="1203.0352">boolean isKing()</text></g><!--class SubjectPiece--><g id="elem_SubjectPiece"><rect codeLine="128" fill="#F1F1F1" height="95.8359" id="SubjectPiece" rx="1.5" ry="1.5" style="stroke:#181818;stroke-width:0.3;" width="161.7428" x="620.904" y="834.6082"/><ellipse cx="674.7103" cy="844.2082" fill="#ADD1B2" rx="6.6" ry="6.6" style="stroke:#181818;stroke-width:0.6;"/><path d="M676.3697,841.7332 Q676.4635,841.602 676.576,841.5363 Q676.6885,841.4707 676.8197,841.4707 Q677.0447,841.4707 677.1853,841.6301 Q677.326,841.7801 677.326,842.1457 L677.326,843.0176 Q677.326,843.3832 677.1853,843.5426 Q677.0447,843.702 676.8197,843.702 Q676.6135,843.702 676.4916,843.5801 Q676.3697,843.4676 676.3041,843.1582 Q676.276,842.9426 676.1635,842.8301 Q675.9666,842.6051 675.601,842.4738 Q675.2353,842.3426 674.8603,842.3426 Q674.401,842.3426 674.0166,842.5395 Q673.6416,842.7363 673.3416,843.1863 Q673.051,843.6363 673.051,844.2551 L673.051,844.9113 Q673.051,845.652 673.5853,846.1488 Q674.1197,846.6363 675.076,846.6363 Q675.6385,846.6363 676.0322,846.4863 Q676.2666,846.3926 676.5197,846.1301 Q676.6791,845.9707 676.7635,845.9238 Q676.8572,845.877 676.9791,845.877 Q677.176,845.877 677.326,846.0363 Q677.4853,846.1863 677.4853,846.3926 Q677.4853,846.5988 677.2791,846.8426 Q676.9791,847.1895 676.501,847.3863 Q675.8541,847.6582 675.076,847.6582 Q674.1666,847.6582 673.4447,847.2832 Q672.8541,846.9832 672.4416,846.3457 Q672.0291,845.6988 672.0291,844.9301 L672.0291,844.2363 Q672.0291,843.4395 672.3947,842.7551 Q672.7697,842.0613 673.426,841.6957 Q674.0822,841.3207 674.8228,841.3207 Q675.2635,841.3207 675.6478,841.4238 Q676.0416,841.5176 676.3697,841.7332 Z " fill="#000000"/><text fill="#000000" font-family="sans-serif" font-size="8.4" lengthAdjust="spacing" textLength="49.0301" x="687.0103" y="847.6863">SubjectPiece</text><line style="stroke:#181818;stroke-width:0.3;" x1="621.504" x2="782.0468" y1="853.8082" y2="853.8082"/><polygon fill="none" points="627.504,859.6945,629.904,862.0945,627.504,864.4945,625.104,862.0945" style="stroke:#B38D22;stroke-width:0.6;"/><text fill="#000000" font-family="sans-serif" font-size="8.4" lengthAdjust="spacing" textLength="114.3885" x="632.904" y="865.2727">ObserverBoard observerBoard</text><line style="stroke:#181818;stroke-width:0.3;" x1="621.504" x2="782.0468" y1="869.7809" y2="869.7809"/><ellipse cx="627.504" cy="878.6672" fill="#84BE84" rx="1.8" ry="1.8" style="stroke:#038048;stroke-width:0.6;"/><text fill="#000000" font-family="sans-serif" font-size="8.4" lengthAdjust="spacing" textLength="116.2465" x="632.904" y="881.2453">void subscribe(ObserverBoard)</text><ellipse cx="627.504" cy="889.8398" fill="#84BE84" rx="1.8" ry="1.8" style="stroke:#038048;stroke-width:0.6;"/><text fill="#000000" font-family="sans-serif" font-size="8.4" lengthAdjust="spacing" textLength="115.7953" x="632.904" y="892.418">boolean isItEnemy(Coordinate)</text><ellipse cx="627.504" cy="901.0125" fill="#84BE84" rx="1.8" ry="1.8" style="stroke:#038048;stroke-width:0.6;"/><text fill="#000000" font-family="sans-serif" font-size="8.4" lengthAdjust="spacing" textLength="146.1428" x="632.904" y="903.5906">boolean isItTheSameColor(Coordinate)</text><ellipse cx="627.504" cy="912.1852" fill="#84BE84" rx="1.8" ry="1.8" style="stroke:#038048;stroke-width:0.6;"/><text fill="#000000" font-family="sans-serif" font-size="8.4" lengthAdjust="spacing" textLength="108.7898" x="632.904" y="914.7633">boolean isEmpty(Coordinate)</text><polygon fill="#FFFF44" points="627.504,920.3578,629.904,922.7578,627.504,925.1578,625.104,922.7578" style="stroke:#B38D22;stroke-width:0.6;"/><text fill="#000000" font-family="sans-serif" font-size="8.4" lengthAdjust="spacing" textLength="107.3912" x="632.904" y="925.9359">void notify(List&lt;Coordinate&gt;)</text></g><!--class Bishop--><g id="elem_Bishop"><rect fill="#F1F1F1" height="28.8" id="Bishop" rx="1.5" ry="1.5" style="stroke:#181818;stroke-width:0.3;" width="44.884" x="710.604" y="1251.9082"/><ellipse cx="719.604" cy="1261.5082" fill="#ADD1B2" rx="6.6" ry="6.6" style="stroke:#181818;stroke-width:0.6;"/><path d="M721.2634,1259.0332 Q721.3571,1258.902 721.4696,1258.8363 Q721.5821,1258.7707 721.7134,1258.7707 Q721.9384,1258.7707 722.079,1258.9301 Q722.2196,1259.0801 722.2196,1259.4457 L722.2196,1260.3176 Q722.2196,1260.6832 722.079,1260.8426 Q721.9384,1261.002 721.7134,1261.002 Q721.5071,1261.002 721.3852,1260.8801 Q721.2634,1260.7676 721.1977,1260.4582 Q721.1696,1260.2426 721.0571,1260.1301 Q720.8603,1259.9051 720.4946,1259.7738 Q720.129,1259.6426 719.754,1259.6426 Q719.2946,1259.6426 718.9102,1259.8395 Q718.5352,1260.0363 718.2353,1260.4863 Q717.9446,1260.9363 717.9446,1261.5551 L717.9446,1262.2113 Q717.9446,1262.952 718.479,1263.4488 Q719.0134,1263.9363 719.9696,1263.9363 Q720.5321,1263.9363 720.9259,1263.7863 Q721.1602,1263.6926 721.4134,1263.4301 Q721.5727,1263.2707 721.6571,1263.2238 Q721.7509,1263.177 721.8727,1263.177 Q722.0696,1263.177 722.2196,1263.3363 Q722.379,1263.4863 722.379,1263.6926 Q722.379,1263.8988 722.1728,1264.1426 Q721.8727,1264.4895 721.3946,1264.6863 Q720.7477,1264.9582 719.9696,1264.9582 Q719.0602,1264.9582 718.3384,1264.5832 Q717.7477,1264.2832 717.3353,1263.6457 Q716.9228,1262.9988 716.9228,1262.2301 L716.9228,1261.5363 Q716.9228,1260.7395 717.2884,1260.0551 Q717.6634,1259.3613 718.3196,1258.9957 Q718.9759,1258.6207 719.7165,1258.6207 Q720.1571,1258.6207 720.5415,1258.7238 Q720.9352,1258.8176 721.2634,1259.0332 Z " fill="#000000"/><text fill="#000000" font-family="sans-serif" font-size="8.4" lengthAdjust="spacing" textLength="25.684" x="728.004" y="1264.9863">Bishop</text><line style="stroke:#181818;stroke-width:0.3;" x1="711.204" x2="754.888" y1="1271.1082" y2="1271.1082"/><line style="stroke:#181818;stroke-width:0.3;" x1="711.204" x2="754.888" y1="1275.9082" y2="1275.9082"/></g><!--class Knight--><g id="elem_Knight"><rect fill="#F1F1F1" height="28.8" id="Knight" rx="1.5" ry="1.5" style="stroke:#181818;stroke-width:0.3;" width="43.0178" x="776.904" y="1251.9082"/><ellipse cx="785.904" cy="1261.5082" fill="#ADD1B2" rx="6.6" ry="6.6" style="stroke:#181818;stroke-width:0.6;"/><path d="M787.5634,1259.0332 Q787.6571,1258.902 787.7696,1258.8363 Q787.8821,1258.7707 788.0134,1258.7707 Q788.2384,1258.7707 788.379,1258.9301 Q788.5196,1259.0801 788.5196,1259.4457 L788.5196,1260.3176 Q788.5196,1260.6832 788.379,1260.8426 Q788.2384,1261.002 788.0134,1261.002 Q787.8071,1261.002 787.6852,1260.8801 Q787.5634,1260.7676 787.4977,1260.4582 Q787.4696,1260.2426 787.3571,1260.1301 Q787.1602,1259.9051 786.7946,1259.7738 Q786.429,1259.6426 786.054,1259.6426 Q785.5946,1259.6426 785.2103,1259.8395 Q784.8353,1260.0363 784.5352,1260.4863 Q784.2446,1260.9363 784.2446,1261.5551 L784.2446,1262.2113 Q784.2446,1262.952 784.779,1263.4488 Q785.3134,1263.9363 786.2696,1263.9363 Q786.8321,1263.9363 787.2259,1263.7863 Q787.4603,1263.6926 787.7134,1263.4301 Q787.8727,1263.2707 787.9571,1263.2238 Q788.0509,1263.177 788.1728,1263.177 Q788.3696,1263.177 788.5196,1263.3363 Q788.679,1263.4863 788.679,1263.6926 Q788.679,1263.8988 788.4727,1264.1426 Q788.1728,1264.4895 787.6946,1264.6863 Q787.0478,1264.9582 786.2696,1264.9582 Q785.3603,1264.9582 784.6384,1264.5832 Q784.0478,1264.2832 783.6352,1263.6457 Q783.2227,1262.9988 783.2227,1262.2301 L783.2227,1261.5363 Q783.2227,1260.7395 783.5884,1260.0551 Q783.9634,1259.3613 784.6196,1258.9957 Q785.2759,1258.6207 786.0165,1258.6207 Q786.4571,1258.6207 786.8415,1258.7238 Q787.2353,1258.8176 787.5634,1259.0332 Z " fill="#000000"/><text fill="#000000" font-family="sans-serif" font-size="8.4" lengthAdjust="spacing" textLength="23.8178" x="794.304" y="1264.9863">Knight</text><line style="stroke:#181818;stroke-width:0.3;" x1="777.504" x2="819.3218" y1="1271.1082" y2="1271.1082"/><line style="stroke:#181818;stroke-width:0.3;" x1="777.504" x2="819.3218" y1="1275.9082" y2="1275.9082"/></g><!--class Queen--><g id="elem_Queen"><rect fill="#F1F1F1" height="28.8" id="Queen" rx="1.5" ry="1.5" style="stroke:#181818;stroke-width:0.3;" width="44.4205" x="841.104" y="1251.9082"/><ellipse cx="850.104" cy="1261.5082" fill="#ADD1B2" rx="6.6" ry="6.6" style="stroke:#181818;stroke-width:0.6;"/><path d="M851.7634,1259.0332 Q851.8571,1258.902 851.9696,1258.8363 Q852.0821,1258.7707 852.2134,1258.7707 Q852.4384,1258.7707 852.579,1258.9301 Q852.7196,1259.0801 852.7196,1259.4457 L852.7196,1260.3176 Q852.7196,1260.6832 852.579,1260.8426 Q852.4384,1261.002 852.2134,1261.002 Q852.0071,1261.002 851.8852,1260.8801 Q851.7634,1260.7676 851.6977,1260.4582 Q851.6696,1260.2426 851.5571,1260.1301 Q851.3603,1259.9051 850.9946,1259.7738 Q850.629,1259.6426 850.254,1259.6426 Q849.7946,1259.6426 849.4102,1259.8395 Q849.0352,1260.0363 848.7353,1260.4863 Q848.4446,1260.9363 848.4446,1261.5551 L848.4446,1262.2113 Q848.4446,1262.952 848.979,1263.4488 Q849.5134,1263.9363 850.4696,1263.9363 Q851.0321,1263.9363 851.4259,1263.7863 Q851.6602,1263.6926 851.9134,1263.4301 Q852.0727,1263.2707 852.1571,1263.2238 Q852.2509,1263.177 852.3727,1263.177 Q852.5696,1263.177 852.7196,1263.3363 Q852.879,1263.4863 852.879,1263.6926 Q852.879,1263.8988 852.6728,1264.1426 Q852.3727,1264.4895 851.8946,1264.6863 Q851.2477,1264.9582 850.4696,1264.9582 Q849.5602,1264.9582 848.8384,1264.5832 Q848.2477,1264.2832 847.8353,1263.6457 Q847.4228,1262.9988 847.4228,1262.2301 L847.4228,1261.5363 Q847.4228,1260.7395 847.7884,1260.0551 Q848.1634,1259.3613 848.8196,1258.9957 Q849.4759,1258.6207 850.2165,1258.6207 Q850.6571,1258.6207 851.0415,1258.7238 Q851.4352,1258.8176 851.7634,1259.0332 Z " fill="#000000"/><text fill="#000000" font-family="sans-serif" font-size="8.4" lengthAdjust="spacing" textLength="25.2205" x="858.504" y="1264.9863">Queen</text><line style="stroke:#181818;stroke-width:0.3;" x1="841.704" x2="884.9245" y1="1271.1082" y2="1271.1082"/><line style="stroke:#181818;stroke-width:0.3;" x1="841.704" x2="884.9245" y1="1275.9082" y2="1275.9082"/></g><!--class Rook--><g id="elem_Rook"><rect fill="#F1F1F1" height="28.8" id="Rook" rx="1.5" ry="1.5" style="stroke:#181818;stroke-width:0.3;" width="38.8096" x="531.804" y="1251.9082"/><ellipse cx="540.804" cy="1261.5082" fill="#ADD1B2" rx="6.6" ry="6.6" style="stroke:#181818;stroke-width:0.6;"/><path d="M542.4634,1259.0332 Q542.5571,1258.902 542.6696,1258.8363 Q542.7821,1258.7707 542.9134,1258.7707 Q543.1384,1258.7707 543.279,1258.9301 Q543.4196,1259.0801 543.4196,1259.4457 L543.4196,1260.3176 Q543.4196,1260.6832 543.279,1260.8426 Q543.1384,1261.002 542.9134,1261.002 Q542.7071,1261.002 542.5853,1260.8801 Q542.4634,1260.7676 542.3978,1260.4582 Q542.3696,1260.2426 542.2571,1260.1301 Q542.0603,1259.9051 541.6946,1259.7738 Q541.329,1259.6426 540.954,1259.6426 Q540.4946,1259.6426 540.1103,1259.8395 Q539.7353,1260.0363 539.4353,1260.4863 Q539.1446,1260.9363 539.1446,1261.5551 L539.1446,1262.2113 Q539.1446,1262.952 539.679,1263.4488 Q540.2134,1263.9363 541.1696,1263.9363 Q541.7321,1263.9363 542.1259,1263.7863 Q542.3603,1263.6926 542.6134,1263.4301 Q542.7728,1263.2707 542.8571,1263.2238 Q542.9509,1263.177 543.0728,1263.177 Q543.2696,1263.177 543.4196,1263.3363 Q543.579,1263.4863 543.579,1263.6926 Q543.579,1263.8988 543.3728,1264.1426 Q543.0728,1264.4895 542.5946,1264.6863 Q541.9478,1264.9582 541.1696,1264.9582 Q540.2603,1264.9582 539.5384,1264.5832 Q538.9478,1264.2832 538.5353,1263.6457 Q538.1228,1262.9988 538.1228,1262.2301 L538.1228,1261.5363 Q538.1228,1260.7395 538.4884,1260.0551 Q538.8634,1259.3613 539.5196,1258.9957 Q540.1759,1258.6207 540.9165,1258.6207 Q541.3571,1258.6207 541.7415,1258.7238 Q542.1353,1258.8176 542.4634,1259.0332 Z " fill="#000000"/><text fill="#000000" font-family="sans-serif" font-size="8.4" lengthAdjust="spacing" textLength="19.6096" x="549.204" y="1264.9863">Rook</text><line style="stroke:#181818;stroke-width:0.3;" x1="532.404" x2="570.0136" y1="1271.1082" y2="1271.1082"/><line style="stroke:#181818;stroke-width:0.3;" x1="532.404" x2="570.0136" y1="1275.9082" y2="1275.9082"/></g><!--class Pawn--><g id="elem_Pawn"><rect fill="#F1F1F1" height="28.8" id="Pawn" rx="1.5" ry="1.5" style="stroke:#181818;stroke-width:0.3;" width="40.2123" x="591.804" y="1251.9082"/><ellipse cx="600.804" cy="1261.5082" fill="#ADD1B2" rx="6.6" ry="6.6" style="stroke:#181818;stroke-width:0.6;"/><path d="M602.4634,1259.0332 Q602.5571,1258.902 602.6696,1258.8363 Q602.7821,1258.7707 602.9134,1258.7707 Q603.1384,1258.7707 603.279,1258.9301 Q603.4196,1259.0801 603.4196,1259.4457 L603.4196,1260.3176 Q603.4196,1260.6832 603.279,1260.8426 Q603.1384,1261.002 602.9134,1261.002 Q602.7071,1261.002 602.5853,1260.8801 Q602.4634,1260.7676 602.3978,1260.4582 Q602.3696,1260.2426 602.2571,1260.1301 Q602.0603,1259.9051 601.6946,1259.7738 Q601.329,1259.6426 600.954,1259.6426 Q600.4946,1259.6426 600.1103,1259.8395 Q599.7353,1260.0363 599.4353,1260.4863 Q599.1446,1260.9363 599.1446,1261.5551 L599.1446,1262.2113 Q599.1446,1262.952 599.679,1263.4488 Q600.2134,1263.9363 601.1696,1263.9363 Q601.7321,1263.9363 602.1259,1263.7863 Q602.3603,1263.6926 602.6134,1263.4301 Q602.7728,1263.2707 602.8571,1263.2238 Q602.9509,1263.177 603.0728,1263.177 Q603.2696,1263.177 603.4196,1263.3363 Q603.579,1263.4863 603.579,1263.6926 Q603.579,1263.8988 603.3728,1264.1426 Q603.0728,1264.4895 602.5946,1264.6863 Q601.9478,1264.9582 601.1696,1264.9582 Q600.2603,1264.9582 599.5384,1264.5832 Q598.9478,1264.2832 598.5353,1263.6457 Q598.1228,1262.9988 598.1228,1262.2301 L598.1228,1261.5363 Q598.1228,1260.7395 598.4884,1260.0551 Q598.8634,1259.3613 599.5196,1258.9957 Q600.1759,1258.6207 600.9165,1258.6207 Q601.3571,1258.6207 601.7415,1258.7238 Q602.1353,1258.8176 602.4634,1259.0332 Z " fill="#000000"/><text fill="#000000" font-family="sans-serif" font-size="8.4" lengthAdjust="spacing" textLength="21.0123" x="609.204" y="1264.9863">Pawn</text><line style="stroke:#181818;stroke-width:0.3;" x1="592.404" x2="631.4163" y1="1271.1082" y2="1271.1082"/><line style="stroke:#181818;stroke-width:0.3;" x1="592.404" x2="631.4163" y1="1275.9082" y2="1275.9082"/></g><!--class King--><g id="elem_King"><rect fill="#F1F1F1" height="28.8" id="King" rx="1.5" ry="1.5" style="stroke:#181818;stroke-width:0.3;" width="36.0123" x="653.304" y="1251.9082"/><ellipse cx="662.304" cy="1261.5082" fill="#ADD1B2" rx="6.6" ry="6.6" style="stroke:#181818;stroke-width:0.6;"/><path d="M663.9634,1259.0332 Q664.0571,1258.902 664.1696,1258.8363 Q664.2821,1258.7707 664.4134,1258.7707 Q664.6384,1258.7707 664.779,1258.9301 Q664.9196,1259.0801 664.9196,1259.4457 L664.9196,1260.3176 Q664.9196,1260.6832 664.779,1260.8426 Q664.6384,1261.002 664.4134,1261.002 Q664.2071,1261.002 664.0853,1260.8801 Q663.9634,1260.7676 663.8978,1260.4582 Q663.8696,1260.2426 663.7571,1260.1301 Q663.5602,1259.9051 663.1946,1259.7738 Q662.829,1259.6426 662.454,1259.6426 Q661.9946,1259.6426 661.6103,1259.8395 Q661.2353,1260.0363 660.9352,1260.4863 Q660.6446,1260.9363 660.6446,1261.5551 L660.6446,1262.2113 Q660.6446,1262.952 661.179,1263.4488 Q661.7134,1263.9363 662.6696,1263.9363 Q663.2321,1263.9363 663.6259,1263.7863 Q663.8603,1263.6926 664.1134,1263.4301 Q664.2728,1263.2707 664.3571,1263.2238 Q664.4509,1263.177 664.5727,1263.177 Q664.7696,1263.177 664.9196,1263.3363 Q665.079,1263.4863 665.079,1263.6926 Q665.079,1263.8988 664.8727,1264.1426 Q664.5727,1264.4895 664.0946,1264.6863 Q663.4477,1264.9582 662.6696,1264.9582 Q661.7602,1264.9582 661.0384,1264.5832 Q660.4477,1264.2832 660.0352,1263.6457 Q659.6227,1262.9988 659.6227,1262.2301 L659.6227,1261.5363 Q659.6227,1260.7395 659.9884,1260.0551 Q660.3634,1259.3613 661.0196,1258.9957 Q661.6759,1258.6207 662.4165,1258.6207 Q662.8571,1258.6207 663.2415,1258.7238 Q663.6352,1258.8176 663.9634,1259.0332 Z " fill="#000000"/><text fill="#000000" font-family="sans-serif" font-size="8.4" lengthAdjust="spacing" textLength="16.8123" x="670.704" y="1264.9863">King</text><line style="stroke:#181818;stroke-width:0.3;" x1="653.904" x2="688.7163" y1="1271.1082" y2="1271.1082"/><line style="stroke:#181818;stroke-width:0.3;" x1="653.904" x2="688.7163" y1="1275.9082" y2="1275.9082"/></g><path d="M452.604,1249.2082 L492.8907,1249.2082 A2.25,2.25 0 0 1 494.3907,1250.7082 L498.5907,1263.9809 L501.2907,1263.9809 A1.5,1.5 0 0 1 502.7907,1265.4809 L502.7907,1282.0535 A1.5,1.5 0 0 1 501.2907,1283.5535 L452.604,1283.5535 A1.5,1.5 0 0 1 451.104,1282.0535 L451.104,1250.7082 A1.5,1.5 0 0 1 452.604,1249.2082 " fill="#F1F1F1" style="stroke:#181818;stroke-width:0.3;"/><line style="stroke:#181818;stroke-width:0.3;" x1="451.104" x2="498.5907" y1="1263.9809" y2="1263.9809"/><text fill="#000000" font-family="sans-serif" font-size="8.4" font-weight="bold" lengthAdjust="spacing" textLength="39.6867" x="453.504" y="1259.4727">strategies</text><path d="M265.404,1249.2082 L399.0628,1249.2082 A2.25,2.25 0 0 1 400.5628,1250.7082 L404.7628,1263.9809 L407.4628,1263.9809 A1.5,1.5 0 0 1 408.9628,1265.4809 L408.9628,1282.0535 A1.5,1.5 0 0 1 407.4628,1283.5535 L265.404,1283.5535 A1.5,1.5 0 0 1 263.904,1282.0535 L263.904,1250.7082 A1.5,1.5 0 0 1 265.404,1249.2082 " fill="#F1F1F1" style="stroke:#181818;stroke-width:0.3;"/><line style="stroke:#181818;stroke-width:0.3;" x1="263.904" x2="404.7628" y1="1263.9809" y2="1263.9809"/><text fill="#000000" font-family="sans-serif" font-size="8.4" font-weight="bold" lengthAdjust="spacing" textLength="133.0588" x="266.304" y="1259.4727">models.pieces.specialMoveRules</text><!--reverse link Piece to Bishop--><g id="link_Piece_Bishop"><path codeLine="161" d="M647.6833,1207.5654 C651.1753,1209.6774 645.486,1206.0382 649.104,1207.8082 C669.558,1217.8042 680.748,1200.6262 700.104,1212.6082 C714.504,1221.5182 723.606,1239.2902 728.52,1251.8122 " fill="none" id="Piece-backto-Bishop" style="stroke:#181818;stroke-width:0.6;"/><polygon fill="none" points="638.442,1201.9762,645.8202,1210.6458,649.5463,1204.485,638.442,1201.9762" style="stroke:#181818;stroke-width:0.6;"/></g><!--reverse link Piece to Knight--><g id="link_Piece_Knight"><path codeLine="162" d="M647.6744,1207.6353 C651.1964,1209.6693 645.444,1206.1342 649.104,1207.8082 C660.942,1213.2082 754.89,1206.0082 766.104,1212.6082 C780.714,1221.2062 789.594,1239.2302 794.268,1251.8842 " fill="none" id="Piece-backto-Knight" style="stroke:#181818;stroke-width:0.6;"/><polygon fill="none" points="638.322,1202.2342,645.874,1210.7528,649.4748,1204.5179,638.322,1202.2342" style="stroke:#181818;stroke-width:0.6;"/></g><!--reverse link Cloneable to Coordinate--><g id="link_Cloneable_Coordinate"><path codeLine="163" d="M89.0259,907.3686 C72.8919,953.6646 30.348,1095.3742 75.504,1207.8082 C98.352,1264.6882 116.088,1279.9762 170.904,1307.4082 C236.424,1340.2042 447.612,1353.8962 552.15,1358.7802 " fill="none" id="Cloneable-backto-Coordinate" style="stroke:#181818;stroke-width:0.6;stroke-dasharray:7.0,7.0;"/><polygon fill="none" points="92.58,897.1702,85.6264,906.1839,92.4254,908.5534,92.58,897.1702" style="stroke:#181818;stroke-width:0.6;"/></g><!--reverse link ObserverBoard to Board--><g id="link_ObserverBoard_Board"><path codeLine="164" d="M852.3244,1028.3888 C860.9884,961.1588 863.4,861.1822 812.304,785.4082 C747.144,688.7782 619.038,637.0822 529.302,611.4922 " fill="none" id="ObserverBoard-backto-Board" style="stroke:#181818;stroke-width:0.6;stroke-dasharray:7.0,7.0;"/><polygon fill="none" points="850.944,1039.1002,855.8949,1028.8489,848.7539,1027.9287,850.944,1039.1002" style="stroke:#181818;stroke-width:0.6;"/></g><!--reverse link Observer to Game--><g id="link_Observer_Game"><path codeLine="165" d="M315.0526,121.4057 C314.9206,135.1877 314.862,140.8642 314.7,157.7782 " fill="none" id="Observer-backto-Game" style="stroke:#181818;stroke-width:0.6;"/><polygon fill="none" points="315.156,110.6062,311.4527,121.3712,318.6524,121.4402,315.156,110.6062" style="stroke:#181818;stroke-width:0.6;"/></g><!--link Game to Board--><g id="link_Game_Board"><path codeLine="166" d="M353.2335,372.3892 C357.3495,383.8612 357.9868,385.6235 362.3308,397.7375 " fill="none" id="Game-Board" style="stroke:#181818;stroke-width:0.6;"/><polygon fill="#181818" points="350.802,365.6122,349.7587,369.8112,353.2335,372.3892,354.2768,368.1902,350.802,365.6122" style="stroke:#181818;stroke-width:0.6;"/><polygon fill="#181818" points="363.546,401.1262,363.9824,395.233,362.5334,398.3023,359.4641,396.8532,363.546,401.1262" style="stroke:#181818;stroke-width:0.6;"/></g><!--link Game to Coordinate--><g id="link_Game_Coordinate"><path codeLine="167" d="M236.898,365.6002 C156.708,484.0042 42.504,686.8882 42.504,882.0082 C42.504,882.0082 42.504,882.0082 42.504,1098.9082 C42.504,1192.6042 3.6,1245.2422 73.704,1307.4082 C108.942,1338.6562 415.8987,1353.769 548.6007,1358.905 " fill="none" id="Game-to-Coordinate" style="stroke:#181818;stroke-width:0.6;stroke-dasharray:7.0,7.0;"/><polygon fill="#181818" points="552.198,1359.0442,546.8949,1356.4372,549.2002,1358.9282,546.7092,1361.2336,552.198,1359.0442" style="stroke:#181818;stroke-width:0.6;"/></g><!--link Board to Turn--><g id="link_Board_Turn"><path codeLine="168" d="M332.22,638.8942 C275.916,672.3982 209.202,722.1022 171.504,785.4082 C157.542,808.8502 137.0436,980.9825 128.4336,1058.0645 " fill="none" id="Board-to-Turn" style="stroke:#181818;stroke-width:0.6;stroke-dasharray:7.0,7.0;"/><polygon fill="#181818" points="128.034,1061.6422,131.0186,1056.542,128.367,1058.6607,126.2483,1056.0092,128.034,1061.6422" style="stroke:#181818;stroke-width:0.6;"/></g><!--link Board to Color--><g id="link_Board_Color"><path codeLine="169" d="M332.076,673.7542 C301.272,705.5122 270.516,744.0442 251.904,785.4082 C175.434,955.3642 192.9383,1188.6446 198.9803,1248.1466 " fill="none" id="Board-to-Color" style="stroke:#181818;stroke-width:0.6;stroke-dasharray:7.0,7.0;"/><polygon fill="#181818" points="199.344,1251.7282,201.1862,1246.1134,199.0409,1248.7436,196.4108,1246.5983,199.344,1251.7282" style="stroke:#181818;stroke-width:0.6;"/></g><!--link Board to Coordinate--><g id="link_Board_Coordinate"><path codeLine="170" d="M529.272,616.4362 C619.554,645.3982 752.034,699.2662 839.304,785.4082 C911.106,856.2802 917.1,890.5762 940.104,988.8082 C972.426,1126.8322 1024.32,1206.1582 925.104,1307.4082 C890.718,1342.5022 756.1451,1354.5732 675.2651,1358.7792 " fill="none" id="Board-to-Coordinate" style="stroke:#181818;stroke-width:0.6;stroke-dasharray:7.0,7.0;"/><polygon fill="#181818" points="671.67,1358.9662,677.1874,1361.0825,674.666,1358.8104,676.9381,1356.289,671.67,1358.9662" style="stroke:#181818;stroke-width:0.6;"/></g><!--link Board to PiecesBuilder--><g id="link_Board_PiecesBuilder"><path codeLine="171" d="M529.278,612.4762 C615.948,638.4622 736.878,690.1642 793.704,785.4082 C831.828,849.3022 828.468,887.0302 793.704,952.8082 C780.432,977.9182 758.91,966.8482 740.904,988.8082 C716.88,1018.1062 704.3743,1058.249 698.7643,1080.335 " fill="none" id="Board-to-PiecesBuilder" style="stroke:#181818;stroke-width:0.6;stroke-dasharray:7.0,7.0;"/><polygon fill="#181818" points="697.878,1083.8242,701.5336,1079.1813,698.6166,1080.9165,696.8813,1077.9996,697.878,1083.8242" style="stroke:#181818;stroke-width:0.6;"/></g><!--link Board to SelectablePiece--><g id="link_Board_SelectablePiece"><path codeLine="172" d="M488.214,776.4082 C496.308,802.7182 502.7544,823.6857 508.5144,842.3877 " fill="none" id="Board-to-SelectablePiece" style="stroke:#181818;stroke-width:0.6;"/><polygon fill="#181818" points="509.574,845.8282,510.2782,839.961,508.691,842.9611,505.6909,841.3739,509.574,845.8282" style="stroke:#181818;stroke-width:0.6;"/></g><!--link Board to SegregatedPiece--><g id="link_Board_SegregatedPiece"><path codeLine="173" d="M373.578,776.4082 C369.744,788.9482 367.1008,797.6136 363.6568,808.8756 " fill="none" id="Board-to-SegregatedPiece" style="stroke:#181818;stroke-width:0.6;stroke-dasharray:7.0,7.0;"/><polygon fill="#181818" points="362.604,812.3182,366.4783,807.8561,363.4813,809.4494,361.8881,806.4524,362.604,812.3182" style="stroke:#181818;stroke-width:0.6;"/></g><!--link Turn to Color--><g id="link_Turn_Color"><path codeLine="174" d="M134.058,1135.0942 C141.618,1157.7742 153.774,1186.6162 171.504,1207.8082 C173.97,1210.7602 176.256,1209.6382 178.704,1212.6082 C188.238,1224.1762 193.2193,1236.9601 196.5373,1248.4261 " fill="none" id="Turn-to-Color" style="stroke:#181818;stroke-width:0.6;stroke-dasharray:7.0,7.0;"/><polygon fill="#181818" points="197.538,1251.8842,198.3424,1246.0299,196.7041,1249.0024,193.7315,1247.3642,197.538,1251.8842" style="stroke:#181818;stroke-width:0.6;"/></g><!--link ObserverBoard to Coordinate--><g id="link_ObserverBoard_Coordinate"><path codeLine="175" d="M888.582,1157.5822 C919.488,1202.7802 947.754,1264.5682 911.904,1307.4082 C881.892,1343.2702 753.9135,1355.0293 675.3195,1358.9833 " fill="none" id="ObserverBoard-to-Coordinate" style="stroke:#181818;stroke-width:0.6;stroke-dasharray:7.0,7.0;"/><polygon fill="#181818" points="671.724,1359.1642,677.2378,1361.2898,674.7202,1359.0135,676.9966,1356.4959,671.724,1359.1642" style="stroke:#181818;stroke-width:0.6;"/></g><!--reverse link SubjectBoard to Board--><g id="link_SubjectBoard_Board"><path codeLine="176" d="M429.1099,132.6321 C429.3319,195.9321 429.696,300.9262 430.05,401.3002 " fill="none" id="SubjectBoard-backto-Board" style="stroke:#181818;stroke-width:0.6;"/><polygon fill="none" points="429.072,121.8322,425.5099,132.6448,432.7099,132.6195,429.072,121.8322" style="stroke:#181818;stroke-width:0.6;"/></g><!--reverse link Observer to SubjectBoard--><g id="link_Observer_SubjectBoard"><path codeLine="177" d="M353.658,73.8082 C361.716,73.8082 366.174,73.8082 374.232,73.8082 " fill="none" id="Observer-backto-SubjectBoard" style="stroke:#181818;stroke-width:0.6;"/><polygon fill="#181818" points="350.058,73.8082,355.458,76.2082,353.058,73.8082,355.458,71.4082,350.058,73.8082" style="stroke:#181818;stroke-width:0.6;"/></g><!--reverse link SelectablePiece to Piece--><g id="link_SelectablePiece_Piece"><path codeLine="178" d="M526.3412,930.0752 C528.6632,949.4192 530.382,963.6502 533.394,988.7362 " fill="none" id="SelectablePiece-backto-Piece" style="stroke:#181818;stroke-width:0.6;stroke-dasharray:7.0,7.0;"/><polygon fill="none" points="525.054,919.3522,522.7668,930.5043,529.9155,929.6462,525.054,919.3522" style="stroke:#181818;stroke-width:0.6;"/></g><!--reverse link SegregatedPiece to Piece--><g id="link_SegregatedPiece_Piece"><path codeLine="179" d="M424.3609,960.4731 C436.4929,972.2451 441.012,976.9702 452.304,988.8082 C453.078,989.6242 453.858,990.4402 454.638,991.2622 " fill="none" id="SegregatedPiece-backto-Piece" style="stroke:#181818;stroke-width:0.6;stroke-dasharray:7.0,7.0;"/><polygon fill="none" points="416.61,952.9522,421.8539,963.0567,426.8678,957.8895,416.61,952.9522" style="stroke:#181818;stroke-width:0.6;"/></g><!--link SubjectPiece to ObserverBoard--><g id="link_SubjectPiece_ObserverBoard"><path codeLine="180" d="M732.666,930.8122 C753.318,962.7802 778.7182,1002.0865 800.7082,1036.1185 " fill="none" id="SubjectPiece-to-ObserverBoard" style="stroke:#181818;stroke-width:0.6;"/><polygon fill="#181818" points="802.662,1039.1422,801.7471,1033.3041,801.0338,1036.6225,797.7155,1035.9092,802.662,1039.1422" style="stroke:#181818;stroke-width:0.6;"/></g><!--reverse link SubjectPiece to Piece--><g id="link_SubjectPiece_Piece"><path codeLine="181" d="M661.0807,939.5589 C648.5647,956.8389 640.182,968.4022 625.416,988.7902 " fill="none" id="SubjectPiece-backto-Piece" style="stroke:#181818;stroke-width:0.6;"/><polygon fill="none" points="667.416,930.8122,658.1652,937.4471,663.9963,941.6706,667.416,930.8122" style="stroke:#181818;stroke-width:0.6;"/></g><!--reverse link Piece to Queen--><g id="link_Piece_Queen"><path codeLine="182" d="M647.8539,1207.7308 C651.3339,1209.7048 645.486,1206.1882 649.104,1207.8082 C667.548,1216.0642 813.414,1202.4862 830.904,1212.6082 C845.58,1221.1042 854.442,1239.1462 859.098,1251.8362 " fill="none" id="Piece-backto-Queen" style="stroke:#181818;stroke-width:0.6;"/><polygon fill="none" points="638.46,1202.4022,646.0777,1210.8621,649.6301,1204.5995,638.46,1202.4022" style="stroke:#181818;stroke-width:0.6;"/></g><!--reverse link Piece to Rook--><g id="link_Piece_Rook"><path codeLine="183" d="M549.9482,1218.6337 C550.4522,1236.0637 550.596,1241.0542 550.902,1251.7162 " fill="none" id="Piece-backto-Rook" style="stroke:#181818;stroke-width:0.6;"/><polygon fill="none" points="549.636,1207.8382,546.3497,1218.7377,553.5467,1218.5296,549.636,1207.8382" style="stroke:#181818;stroke-width:0.6;"/></g><!--reverse link Piece to Pawn--><g id="link_Piece_Pawn"><path codeLine="184" d="M593.1543,1217.893 C599.9883,1235.323 602.238,1241.0542 606.42,1251.7162 " fill="none" id="Piece-backto-Pawn" style="stroke:#181818;stroke-width:0.6;"/><polygon fill="none" points="589.212,1207.8382,589.8027,1219.2071,596.5059,1216.5789,589.212,1207.8382" style="stroke:#181818;stroke-width:0.6;"/></g><!--link Piece to Color--><g id="link_Piece_Color"><path codeLine="185" d="M454.668,1206.6622 C453.882,1207.0522 453.096,1207.4362 452.304,1207.8082 C430.644,1218.0022 257.928,1201.1602 236.904,1212.6082 C221.55,1220.9722 212.9127,1235.7441 207.4287,1248.4701 " fill="none" id="Piece-to-Color" style="stroke:#181818;stroke-width:0.6;stroke-dasharray:7.0,7.0;"/><polygon fill="#181818" points="206.004,1251.7762,210.3451,1247.7669,207.1912,1249.0211,205.937,1245.8673,206.004,1251.7762" style="stroke:#181818;stroke-width:0.6;"/></g><!--link Piece to Coordinate--><g id="link_Piece_Coordinate"><path codeLine="186" d="M454.668,1206.6562 C453.882,1207.0522 453.096,1207.4362 452.304,1207.8082 C442.32,1212.5182 261.414,1204.7122 253.704,1212.6082 C224.274,1242.7582 226.206,1275.4822 253.704,1307.4082 C291.51,1351.3042 456.8464,1359.7779 548.5744,1361.1099 " fill="none" id="Piece-to-Coordinate" style="stroke:#181818;stroke-width:0.6;"/><polygon fill="#181818" points="552.174,1361.1622,546.8094,1358.684,549.1743,1361.1186,546.7397,1363.4835,552.174,1361.1622" style="stroke:#181818;stroke-width:0.6;"/></g><!--reverse link Cloneable to Turn--><g id="link_Cloneable_Turn"><path codeLine="187" d="M100.7331,907.8353 C104.7771,940.6973 113.712,1013.2942 119.658,1061.5822 " fill="none" id="Cloneable-backto-Turn" style="stroke:#181818;stroke-width:0.6;stroke-dasharray:7.0,7.0;"/><polygon fill="none" points="99.414,897.1162,97.1601,908.275,104.3061,907.3956,99.414,897.1162" style="stroke:#181818;stroke-width:0.6;"/></g><!--reverse link Piece to King--><g id="link_Piece_King"><path codeLine="188" d="M644.6112,1215.4967 C653.2452,1228.1447 659.292,1240.7482 664.704,1251.7282 " fill="none" id="Piece-backto-King" style="stroke:#181818;stroke-width:0.6;"/><polygon fill="none" points="638.382,1206.6742,641.6704,1217.5731,647.5521,1213.4203,638.382,1206.6742" style="stroke:#181818;stroke-width:0.6;"/></g><!--link Piece to specialMoveRules--><g id="link_Piece_specialMoveRules"><path codeLine="189" d="M454.59,1206.5122 C453.834,1206.9562 453.072,1207.3882 452.304,1207.8082 C439.788,1214.7082 433.896,1207.6162 420.504,1212.6082 C397.224,1221.2842 376.4426,1234.8557 360.1886,1246.9457 " fill="none" id="Piece-to-specialMoveRules" style="stroke:#181818;stroke-width:0.6;"/><polygon fill="#181818" points="357.3,1249.0942,363.0652,1247.7971,359.7071,1247.3037,360.2005,1243.9457,357.3,1249.0942" style="stroke:#181818;stroke-width:0.6;"/></g><!--link PiecesBuilder to Pawn--><g id="link_PiecesBuilder_Pawn"><path codeLine="190" d="M691.302,1112.7622 C685.44,1134.6142 671.814,1177.7002 649.104,1207.8082 C647.046,1210.5322 645.342,1210.0282 643.104,1212.6082 C632.748,1224.5722 625.533,1237.2228 619.947,1248.4908 " fill="none" id="PiecesBuilder-to-Pawn" style="stroke:#181818;stroke-width:0.6;stroke-dasharray:7.0,7.0;"/><polygon fill="#181818" points="618.348,1251.7162,622.8967,1247.9441,619.6805,1249.0284,618.5962,1245.8121,618.348,1251.7162" style="stroke:#181818;stroke-width:0.6;"/></g><!--link PiecesBuilder to Rook--><g id="link_PiecesBuilder_Rook"><path codeLine="191" d="M693.438,1112.7382 C690.432,1136.6302 680.58,1185.2242 649.104,1207.8082 C636.834,1216.6162 594.072,1204.5382 581.304,1212.6082 C567.342,1221.4342 560.3934,1235.8033 556.2054,1248.3553 " fill="none" id="PiecesBuilder-to-Rook" style="stroke:#181818;stroke-width:0.6;stroke-dasharray:7.0,7.0;"/><polygon fill="#181818" points="555.066,1251.7702,559.0517,1247.4074,556.0155,1248.9244,554.4985,1245.8882,555.066,1251.7702" style="stroke:#181818;stroke-width:0.6;"/></g><!--link PiecesBuilder to King--><g id="link_PiecesBuilder_King"><path codeLine="192" d="M692.748,1112.8402 C688.344,1144.2382 678.1816,1216.663 673.7716,1248.133 " fill="none" id="PiecesBuilder-to-King" style="stroke:#181818;stroke-width:0.6;stroke-dasharray:7.0,7.0;"/><polygon fill="#181818" points="673.272,1251.6982,676.3982,1246.6835,673.6883,1248.7272,671.6446,1246.0174,673.272,1251.6982" style="stroke:#181818;stroke-width:0.6;"/></g><!--link PiecesBuilder to Queen--><g id="link_PiecesBuilder_Queen"><path codeLine="193" d="M696.012,1112.8042 C699.084,1136.7862 709.122,1185.5242 740.904,1207.8082 C757.302,1219.3042 813.708,1202.3422 830.904,1212.6082 C845.37,1221.2422 852.9771,1235.7022 857.6931,1248.3142 " fill="none" id="PiecesBuilder-to-Queen" style="stroke:#181818;stroke-width:0.6;stroke-dasharray:7.0,7.0;"/><polygon fill="#181818" points="858.954,1251.6862,859.3107,1245.7877,857.9033,1248.8762,854.8147,1247.4688,858.954,1251.6862" style="stroke:#181818;stroke-width:0.6;"/></g><!--link PiecesBuilder to Bishop--><g id="link_PiecesBuilder_Bishop"><path codeLine="194" d="M697.914,1112.8402 C705.138,1144.2382 721.8267,1216.7199 729.0687,1248.1899 " fill="none" id="PiecesBuilder-to-Bishop" style="stroke:#181818;stroke-width:0.6;stroke-dasharray:7.0,7.0;"/><polygon fill="#181818" points="729.876,1251.6982,731.0039,1245.8975,729.2032,1248.7746,726.3261,1246.974,729.876,1251.6982" style="stroke:#181818;stroke-width:0.6;"/></g><!--link PiecesBuilder to Knight--><g id="link_PiecesBuilder_Knight"><path codeLine="195" d="M696.39,1112.7442 C700.026,1136.1982 710.856,1183.5622 740.904,1207.8082 C749.778,1214.9662 756.732,1206.1162 766.104,1212.6082 C779.868,1222.1362 787.4948,1236.2502 792.4388,1248.5442 " fill="none" id="PiecesBuilder-to-Knight" style="stroke:#181818;stroke-width:0.6;stroke-dasharray:7.0,7.0;"/><polygon fill="#181818" points="793.782,1251.8842,793.9939,1245.9787,792.6627,1249.1008,789.5405,1247.7696,793.782,1251.8842" style="stroke:#181818;stroke-width:0.6;"/></g><!--link PiecesBuilder to Coordinate--><g id="link_PiecesBuilder_Coordinate"><path codeLine="196" d="M695.958,1112.8762 C698.958,1136.9782 708.876,1185.8842 740.904,1207.8082 C755.16,1217.5642 884.28,1200.2062 896.304,1212.6082 C925.632,1242.8602 923.19,1274.9662 896.304,1307.4082 C868.35,1341.1402 750.119,1353.6061 675.275,1358.2741 " fill="none" id="PiecesBuilder-to-Coordinate" style="stroke:#181818;stroke-width:0.6;stroke-dasharray:7.0,7.0;"/><polygon fill="#181818" points="671.682,1358.4982,677.2209,1360.5574,674.6762,1358.3115,676.9221,1355.7667,671.682,1358.4982" style="stroke:#181818;stroke-width:0.6;"/></g><!--link Rook to Coordinate--><g id="link_Rook_Coordinate"><path codeLine="197" d="M560.244,1280.8102 C566.832,1291.0462 574.2083,1302.5086 583.1243,1316.3686 " fill="none" id="Rook-to-Coordinate" style="stroke:#181818;stroke-width:0.6;stroke-dasharray:7.0,7.0;"/><polygon fill="#181818" points="585.072,1319.3962,584.1689,1313.5563,583.449,1316.8732,580.1321,1316.1532,585.072,1319.3962" style="stroke:#181818;stroke-width:0.6;"/></g><!--link King to Coordinate--><g id="link_King_Coordinate"><path codeLine="198" d="M662.538,1280.8102 C656.082,1291.0462 648.8636,1302.4907 640.1276,1316.3507 " fill="none" id="King-to-Coordinate" style="stroke:#181818;stroke-width:0.6;stroke-dasharray:7.0,7.0;"/><polygon fill="#181818" points="638.208,1319.3962,643.1177,1316.1077,639.8077,1316.8583,639.0571,1313.5482,638.208,1319.3962" style="stroke:#181818;stroke-width:0.6;"/></g><!--link Queen to Coordinate--><g id="link_Queen_Coordinate"><path codeLine="199" d="M855.552,1280.7202 C849.852,1289.6362 841.302,1300.7722 830.904,1307.4082 C782.73,1338.1642 721.8461,1350.879 675.3521,1356.489 " fill="none" id="Queen-to-Coordinate" style="stroke:#181818;stroke-width:0.6;stroke-dasharray:7.0,7.0;"/><polygon fill="#181818" points="671.778,1356.9202,677.4266,1358.656,674.7564,1356.5608,676.8516,1353.8906,671.778,1356.9202" style="stroke:#181818;stroke-width:0.6;"/></g><!--link Bishop to Coordinate--><g id="link_Bishop_Coordinate"><path codeLine="200" d="M723.588,1280.8642 C717.492,1289.1802 709.062,1299.6022 700.104,1307.4082 C691.458,1314.9502 684.6332,1320.1054 674.7452,1326.5554 " fill="none" id="Bishop-to-Coordinate" style="stroke:#181818;stroke-width:0.6;stroke-dasharray:7.0,7.0;"/><polygon fill="#181818" points="671.73,1328.5222,677.5641,1327.5821,674.2427,1326.8832,674.9416,1323.5618,671.73,1328.5222" style="stroke:#181818;stroke-width:0.6;"/></g><!--link Knight to Coordinate--><g id="link_Knight_Coordinate"><path codeLine="201" d="M790.284,1280.7922 C784.494,1289.5102 776.028,1300.3882 766.104,1307.4082 C738.042,1327.2562 705.4417,1339.3956 675.2437,1347.6816 " fill="none" id="Knight-to-Coordinate" style="stroke:#181818;stroke-width:0.6;stroke-dasharray:7.0,7.0;"/><polygon fill="#181818" points="671.772,1348.6342,677.6146,1349.5198,674.6651,1347.8404,676.3445,1344.8909,671.772,1348.6342" style="stroke:#181818;stroke-width:0.6;"/></g><!--link Pawn to Coordinate--><g id="link_Pawn_Coordinate"><path codeLine="202" d="M611.904,1280.8102 C611.904,1291.0462 611.904,1301.9362 611.904,1315.7962 " fill="none" id="Pawn-to-Coordinate" style="stroke:#181818;stroke-width:0.6;stroke-dasharray:7.0,7.0;"/><polygon fill="#181818" points="611.904,1319.3962,614.304,1313.9962,611.904,1316.3962,609.504,1313.9962,611.904,1319.3962" style="stroke:#181818;stroke-width:0.6;"/></g><!--link Piece to rulesofmovements--><g id="link_Piece_rulesOfMovements"><path codeLine="203" d="M454.41,1206.2242 C453.708,1206.7582 453.006,1207.2862 452.304,1207.8082 C448.086,1210.9342 444.816,1208.5282 441.504,1212.6082 C439.6613,1214.877 438.0976,1217.3749 436.7725,1220.0133 C436.4412,1220.6729 437.5941,1218.0548 437.292,1218.7305 " fill="none" id="Piece-to-rulesOfMovements" style="stroke:#181818;stroke-width:0.6;"/><polygon fill="#181818" points="435.8227,1222.0171,440.2176,1218.0668,437.0471,1219.2783,435.8356,1216.1078,435.8227,1222.0171" style="stroke:#181818;stroke-width:0.6;"/></g><!--link rulesofmovements to Coordinate--><g id="link_rulesOfMovements_Coordinate"><path codeLine="204" d="M435.2182,1297.8148 C435.2766,1297.9458 435.3356,1298.0765 435.3953,1298.2068 C435.5147,1298.4675 435.6367,1298.7268 435.7614,1298.9848 C436.2601,1300.0165 436.8017,1301.0254 437.3897,1302.0023 C438.5657,1303.9561 439.9275,1305.7822 441.504,1307.4082 C470.382,1337.1922 512.0443,1349.9366 548.6443,1355.8646 " fill="none" id="rulesOfMovements-to-Coordinate" style="stroke:#181818;stroke-width:0.6;stroke-dasharray:7.0,7.0;"/><polygon fill="#181818" points="552.198,1356.4402,547.2512,1353.2077,549.2366,1355.9606,546.4837,1357.946,552.198,1356.4402" style="stroke:#181818;stroke-width:0.6;"/></g><!--link commonmovementstrategy to Coordinate--><g id="link_strategies_Coordinate"><path codeLine="205" d="M485.868,1283.5522 C490.764,1291.5082 497.4,1300.7302 505.104,1307.4082 C518.904,1319.3722 532.612,1327.8503 548.89,1335.9383 " fill="none" id="strategies-to-Coordinate" style="stroke:#181818;stroke-width:0.6;stroke-dasharray:7.0,7.0;"/><polygon fill="#181818" points="552.114,1337.5402,548.346,1332.9881,549.4274,1336.2053,546.2101,1337.2867,552.114,1337.5402" style="stroke:#181818;stroke-width:0.6;"/></g><!--link specialMoveRules to Coordinate--><g id="link_specialMoveRules_Coordinate"><path codeLine="206" d="M367.44,1283.4382 C383.064,1291.3642 402.48,1300.5982 420.504,1307.4082 C463.68,1323.7282 510.4981,1336.7788 548.6941,1346.3548 " fill="none" id="specialMoveRules-to-Coordinate" style="stroke:#181818;stroke-width:0.6;stroke-dasharray:7.0,7.0;"/><polygon fill="#181818" points="552.186,1347.2302,547.5317,1343.5891,549.2761,1346.5007,546.3645,1348.245,552.186,1347.2302" style="stroke:#181818;stroke-width:0.6;"/></g><!--SRC=[lLZ1RkCs4BthAmJinLl7_WB3mCO82dUJnhM3xfcMnZORYLGfAccQnj_U8MLP94NASh7RGm99V4CEPzuy3asP1B4Z2SGvJo4hfmM51Chf1Z989Dbci58VulVe6BzmciP59KSBpaLA6P7m6JzlES-0i9YM3_m5Sc3oTvBHr45fOyObtRtfuGPRZkmvLkILVP4hmNF4ShOcx1aH7r6KPAGi7I-rR-LjHRCK1Fg8C61Lxg0MFEEdKUfkzt5RWdZHnYSVAQEIeeT_m-ZiznRsbBMlm5BZvIygmnwsGS0L9ZYvZ0L_FJqbFAjo5etZsMmX037pUTmQZ11oWt-V-m3XmQvBjvo8LBlnG8gPZihDFItbJ8SHhMkVSJ0CoKdnk5j3ZjbBw-WZrYLBQRyZugaIB9Ru3v-DNAlHEvPgnt14hzHkOHw_AAQq7zHQxwKaaYOVyIBZ9QHBbL24pTJ37iGylby-B9ys61QTdTeLYujZFv77XcDF1r0yh5a8AjdZGJG_JIrqV1QL48XQPUGDXDvg6Bkck8SGSc8YRzz6cweeCWgYpi_y9hIBRrGUADF1lQSvnL8B8VMQTHOXxOlAjmELC1Xzcv7aUHZwBY_aMt1qAUyOv7tZkDg6vA0Z4eJzGlwiL65CR3U_KhPVihCgbIFjicswvlpPcRV3rZt8ZhITQUWEkTPdA4dJ5HOjGUOW1LjVQXLBJ5ADsk-Y9L2xQd8WR0yMUtSeR-L1KzedXoVLQbInKOnZg6Y_o5O8SO_Mc2liZbte4F7b-jZBbECm9XpjL1Youad6CPnUqx0hiZ_ZsbfZwzXjjRG59IUiKKDBu_yMeuPm68r5W8iuj1v8nnyXAjrJV6oVucFp51-xfpWDTaHx0NjS8_rE7T6bdiT4_CgbcggkAQEdK5amZ_oZaHrT0EOq1rB-nwPCAQJpIGkY3bX4jgKK9C5-9jIYOR0-nVgfMU61C8B7TPpRxrWtnkwIywF-hlLF_SV9cbBkS3COcd4tD6FTXIcwybVpTQ7xif4pOKhB0hdNuTi5o8tHneKoOPtQgXgS8j6SRyaQoDWuVczIyH7GcnOmJ45y-1CP0Wtlfjh-WLNPfjq-IxZvTXR0QbicWcvXP85_I0_GLTDFPb0zHu6xKTtBDiqyobm5VcwvcgVjaempNsz-2blRefyl9at4mi7w3g9N8B-m_fnSYYg3yd5tvbXzXng6dIhUO4jEeTUiB211bvNPMiqGloFKfo2pVoOJn_OMEnbU34L_PNH_a0rweVAWRYW8dKw3bxQehoyoBMi-kvTAqmtL64Hca_3JP3BtcklHwNH-qQlQZQa1LHnpH-U-w_1bK6YnUTyTt0OR6_J_h71fRkVCZSmAlB0nRyQ6xDEgH3E1Leuir2I3dMptsgmPzV-auY6UjSj0tp7KpDJXRYAikFIPUYh9jrmG_5i5m8Q2LLCn5AkQ9Yzs635EWH5A52QNMU7N2xFSBkeF7fj-7phBkw8OzVtgvQd8G6HwJ4A1xp49xQV79CY57fkmoFVvPcdzGAEWwglWN8DNaRa6hyDoZK4TawjSqW6vnaAHw2fyWCjkNn1TQ36kMBAlvRXYcauBqclxBm00]--></g></svg>