<svg xmlns="http://www.w3.org/2000/svg" xmlns:xlink="http://www.w3.org/1999/xlink" contentStyleType="text/css" height="261px" preserveAspectRatio="none" style="width:357px;height:261px;background:#FFFFFF;" version="1.1" viewBox="0 0 357 261" width="357px" zoomAndPan="magnify"><defs/><g><!--cluster models--><g id="cluster_models"><path d="M8.5,6.0137 L58.5137,6.0137 A3.75,3.75 0 0 1 61.0137,8.5137 L68.0137,30.6348 L347.5,30.6348 A2.5,2.5 0 0 1 350,33.1348 L350,251.5137 A2.5,2.5 0 0 1 347.5,254.0137 L8.5,254.0137 A2.5,2.5 0 0 1 6,251.5137 L6,8.5137 A2.5,2.5 0 0 1 8.5,6.0137 " fill="none" style="stroke:#000000;stroke-width:1.5;"/><line style="stroke:#000000;stroke-width:1.5;" x1="6" x2="68.0137" y1="30.6348" y2="30.6348"/><text fill="#000000" font-family="sans-serif" font-size="14" font-weight="bold" lengthAdjust="spacing" textLength="49.0137" x="10" y="23.1211">models</text></g><!--cluster pieces--><g id="cluster_pieces"><path d="M32.5,51.0137 L77.0859,51.0137 A3.75,3.75 0 0 1 79.5859,53.5137 L86.5859,75.6348 L323.5,75.6348 A2.5,2.5 0 0 1 326,78.1348 L326,227.5137 A2.5,2.5 0 0 1 323.5,230.0137 L32.5,230.0137 A2.5,2.5 0 0 1 30,227.5137 L30,53.5137 A2.5,2.5 0 0 1 32.5,51.0137 " fill="none" style="stroke:#000000;stroke-width:1.5;"/><line style="stroke:#000000;stroke-width:1.5;" x1="30" x2="86.5859" y1="75.6348" y2="75.6348"/><text fill="#000000" font-family="sans-serif" font-size="14" font-weight="bold" lengthAdjust="spacing" textLength="43.5859" x="34" y="68.1211">pieces</text></g><!--cluster pieceMovementManager--><g id="cluster_pieceMovementManager"><path d="M126.5,96.0137 L290.1064,96.0137 A3.75,3.75 0 0 1 292.6064,98.5137 L299.6064,120.6348 L299.5,120.6348 A2.5,2.5 0 0 1 302,123.1348 L302,203.5137 A2.5,2.5 0 0 1 299.5,206.0137 L126.5,206.0137 A2.5,2.5 0 0 1 124,203.5137 L124,98.5137 A2.5,2.5 0 0 1 126.5,96.0137 " fill="none" style="stroke:#000000;stroke-width:1.5;"/><line style="stroke:#000000;stroke-width:1.5;" x1="124" x2="299.6064" y1="120.6348" y2="120.6348"/><text fill="#000000" font-family="sans-serif" font-size="14" font-weight="bold" lengthAdjust="spacing" textLength="162.6064" x="128" y="113.1211">pieceMovementManager</text></g><path d="M173.5,133.0137 L240.6445,133.0137 A3.75,3.75 0 0 1 243.1445,135.5137 L250.1445,157.6348 L254.6445,157.6348 A2.5,2.5 0 0 1 257.1445,160.1348 L257.1445,187.7559 A2.5,2.5 0 0 1 254.6445,190.2559 L173.5,190.2559 A2.5,2.5 0 0 1 171,187.7559 L171,135.5137 A2.5,2.5 0 0 1 173.5,133.0137 " fill="#F1F1F1" style="stroke:#181818;stroke-width:0.5;"/><line style="stroke:#181818;stroke-width:0.5;" x1="171" x2="250.1445" y1="157.6348" y2="157.6348"/><text fill="#000000" font-family="sans-serif" font-size="14" font-weight="bold" lengthAdjust="spacing" textLength="66.1445" x="175" y="150.1211">strategies</text><path d="M48.5,133.0137 L91.4932,133.0137 A3.75,3.75 0 0 1 93.9932,135.5137 L100.9932,157.6348 L105.4932,157.6348 A2.5,2.5 0 0 1 107.9932,160.1348 L107.9932,187.7559 A2.5,2.5 0 0 1 105.4932,190.2559 L48.5,190.2559 A2.5,2.5 0 0 1 46,187.7559 L46,135.5137 A2.5,2.5 0 0 1 48.5,133.0137 " fill="#F1F1F1" style="stroke:#181818;stroke-width:0.5;"/><line style="stroke:#181818;stroke-width:0.5;" x1="46" x2="100.9932" y1="157.6348" y2="157.6348"/><text fill="#000000" font-family="sans-serif" font-size="14" font-weight="bold" lengthAdjust="spacing" textLength="41.9932" x="50" y="150.1211">config</text><!--SRC=[AqXCpavCJrLGoCrFISqfrYl8J4rEXLA- -MMfkQbv9Rw9UK0bHGhLNBLSN0N4Qz0hBYbAB4bDpqmjngitEJylBJCTh0G0]--></g></svg>