<svg xmlns="http://www.w3.org/2000/svg" xmlns:xlink="http://www.w3.org/1999/xlink" contentStyleType="text/css" height="1030.4px" preserveAspectRatio="none" style="width:1082px;height:1030px;background:#FFFFFF;" version="1.1" viewBox="0 0 1082 1030" width="1082.4px" zoomAndPan="magnify"><defs/><g><ellipse cx="777.6" cy="12.8" fill="#222222" rx="8" ry="8" style="stroke:#222222;stroke-width:0.8000000000000002;"/><g id="Initial"><rect fill="#F1F1F1" height="40" rx="10" ry="10" style="stroke:#181818;stroke-width:0.4000000000000001;" width="46.9914" x="754" y="69.6"/><line style="stroke:#181818;stroke-width:0.4000000000000001;" x1="754" x2="800.9914" y1="90.6375" y2="90.6375"/><text fill="#000000" font-family="sans-serif" font-size="11.2" lengthAdjust="spacing" textLength="30.9914" x="762" y="83.9961">Initial</text></g><path d="M15.6,196 L1012.8219,196 A10,10 0 0 1 1022.8219,206 L1022.8219,217.0375 L5.6,217.0375 L5.6,206 A10,10 0 0 1 15.6,196 " fill="#F1F1F1" style="stroke:#F1F1F1;stroke-width:0.8000000000000002;"/><rect fill="none" height="498.6375" rx="10" ry="10" style="stroke:#181818;stroke-width:0.4000000000000001;" width="1017.2219" x="5.6" y="196"/><line style="stroke:#181818;stroke-width:0.4000000000000001;" x1="5.6" x2="1022.8219" y1="217.0375" y2="217.0375"/><text fill="#000000" font-family="sans-serif" font-size="11.2" lengthAdjust="spacing" textLength="43.7445" x="492.3387" y="210.3961">InGame</text><ellipse cx="266" cy="233.8375" fill="#222222" rx="8" ry="8" style="stroke:#222222;stroke-width:0.8000000000000002;"/><path d="M25.2,271.4375 L507.0508,271.4375 A10,10 0 0 1 517.0508,281.4375 L517.0508,292.475 L15.2,292.475 L15.2,281.4375 A10,10 0 0 1 25.2,271.4375 " fill="#F1F1F1" style="stroke:#F1F1F1;stroke-width:0.8000000000000002;"/><rect fill="none" height="333.0375" rx="10" ry="10" style="stroke:#181818;stroke-width:0.4000000000000001;" width="501.8508" x="15.2" y="271.4375"/><line style="stroke:#181818;stroke-width:0.4000000000000001;" x1="15.2" x2="517.0508" y1="292.475" y2="292.475"/><text fill="#000000" font-family="sans-serif" font-size="11.2" lengthAdjust="spacing" textLength="61.7586" x="235.2461" y="285.8336">WhitePlays</text><ellipse cx="131.6" cy="309.275" fill="#222222" rx="8" ry="8" style="stroke:#222222;stroke-width:0.8000000000000002;"/><g id="InGame.WhitePlays.SelectingPieceWhite"><rect fill="#F1F1F1" height="62.5625" rx="10" ry="10" style="stroke:#181818;stroke-width:0.4000000000000001;" width="165.7844" x="48.8" y="346.875"/><line style="stroke:#181818;stroke-width:0.4000000000000001;" x1="48.8" x2="214.5844" y1="367.9125" y2="367.9125"/><text fill="#000000" font-family="sans-serif" font-size="11.2" lengthAdjust="spacing" textLength="114.2422" x="74.5711" y="361.2711">SelectingPieceWhite</text><text fill="#000000" font-family="sans-serif" font-size="9.6" lengthAdjust="spacing" textLength="106.0453" x="52.8" y="380.8234">entry: showMessage()</text><text fill="#000000" font-family="sans-serif" font-size="9.6" lengthAdjust="spacing" textLength="106.5234" x="52.8" y="391.9984">do:    input coordinate</text><text fill="#000000" font-family="sans-serif" font-size="9.6" lengthAdjust="spacing" textLength="149.7844" x="52.8" y="403.1734">exit:  select(origin: Coordinate)</text></g><g id="InGame.WhitePlays.WhitePieceSelectionOperationError"><rect fill="#F1F1F1" height="40" rx="10" ry="10" style="stroke:#181818;stroke-width:0.4000000000000001;" width="213.4656" x="24.8" y="462.875"/><line style="stroke:#181818;stroke-width:0.4000000000000001;" x1="24.8" x2="238.2656" y1="483.9125" y2="483.9125"/><text fill="#000000" font-family="sans-serif" font-size="11.2" lengthAdjust="spacing" textLength="197.4656" x="32.8" y="477.2711">WhitePieceSelectionOperationError</text></g><g id="InGame.WhitePlays.MovingPieceWhite"><rect fill="#F1F1F1" height="62.5625" rx="10" ry="10" style="stroke:#181818;stroke-width:0.4000000000000001;" width="152.1766" x="253.2" y="451.675"/><line style="stroke:#181818;stroke-width:0.4000000000000001;" x1="253.2" x2="405.3766" y1="472.7125" y2="472.7125"/><text fill="#000000" font-family="sans-serif" font-size="11.2" lengthAdjust="spacing" textLength="102.8344" x="277.8711" y="466.0711">MovingPieceWhite</text><text fill="#000000" font-family="sans-serif" font-size="9.6" lengthAdjust="spacing" textLength="106.0453" x="257.2" y="485.6234">entry: showMessage()</text><text fill="#000000" font-family="sans-serif" font-size="9.6" lengthAdjust="spacing" textLength="97.3688" x="257.2" y="496.7984">do: input coordinate</text><text fill="#000000" font-family="sans-serif" font-size="9.6" lengthAdjust="spacing" textLength="136.1766" x="257.2" y="507.9734">exit: put(target: Coordinate)</text></g><g id="InGame.WhitePlays.WhitePieceMoveOperationError"><rect fill="#F1F1F1" height="40" rx="10" ry="10" style="stroke:#181818;stroke-width:0.4000000000000001;" width="191.8859" x="233.2" y="556.475"/><line style="stroke:#181818;stroke-width:0.4000000000000001;" x1="233.2" x2="425.0859" y1="577.5125" y2="577.5125"/><text fill="#000000" font-family="sans-serif" font-size="11.2" lengthAdjust="spacing" textLength="175.8859" x="241.2" y="570.8711">WhitePieceMoveOperationError</text></g><g id="InGame.WhitePlays.EndWhite"><rect fill="#F1F1F1" height="40" rx="10" ry="10" style="stroke:#181818;stroke-width:0.4000000000000001;" width="69.8508" x="440" y="556.475"/><line style="stroke:#181818;stroke-width:0.4000000000000001;" x1="440" x2="509.8508" y1="577.5125" y2="577.5125"/><text fill="#000000" font-family="sans-serif" font-size="11.2" lengthAdjust="spacing" textLength="53.8508" x="448" y="570.8711">EndWhite</text></g><!--link *start*WhitePlays to SelectingPieceWhite--><g id="link_*start*WhitePlays_SelectingPieceWhite"><path d="M131.6,317.523 C131.6,324.635 131.6,331.027 131.6,341.811 " fill="none" id="*start*WhitePlays-to-SelectingPieceWhite" style="stroke:#181818;stroke-width:0.8000000000000002;"/><polygon fill="#181818" points="131.6,346.611,134.8,339.411,131.6,342.611,128.4,339.411,131.6,346.611" style="stroke:#181818;stroke-width:0.8000000000000002;"/></g><!--link SelectingPieceWhite to WhitePieceSelectionOperationError--><g id="link_SelectingPieceWhite_WhitePieceSelectionOperationError"><path d="M126.624,409.283 C125.896,426.523 125.7345,442.8012 126.8945,457.8252 " fill="none" id="SelectingPieceWhite-to-WhitePieceSelectionOperationError" style="stroke:#181818;stroke-width:0.8000000000000002;"/><polygon fill="#181818" points="127.264,462.611,129.9002,455.186,126.9561,458.6229,123.5192,455.6787,127.264,462.611" style="stroke:#181818;stroke-width:0.8000000000000002;"/></g><!--link SelectingPieceWhite to MovingPieceWhite--><g id="link_SelectingPieceWhite_MovingPieceWhite"><path d="M189.816,409.283 C215.32,422.595 240.9296,435.9725 266.4576,449.3085 " fill="none" id="SelectingPieceWhite-to-MovingPieceWhite" style="stroke:#181818;stroke-width:0.8000000000000002;"/><polygon fill="#181818" points="270.712,451.531,265.812,445.3609,267.1666,449.6789,262.8486,451.0335,270.712,451.531" style="stroke:#181818;stroke-width:0.8000000000000002;"/><text fill="#000000" font-family="sans-serif" font-size="10.4" lengthAdjust="spacing" textLength="72.7594" x="243.6" y="434.1285">SelectedPiece</text></g><!--link WhitePieceSelectionOperationError to SelectingPieceWhite--><g id="link_WhitePieceSelectionOperationError_SelectingPieceWhite"><path d="M135.936,462.611 C137.096,447.587 137.5065,431.3187 136.7785,414.0787 " fill="none" id="WhitePieceSelectionOperationError-to-SelectingPieceWhite" style="stroke:#181818;stroke-width:0.8000000000000002;"/><polygon fill="#181818" points="136.576,409.283,133.6826,416.6116,136.7448,413.2794,140.0769,416.3416,136.576,409.283" style="stroke:#181818;stroke-width:0.8000000000000002;"/></g><!--link MovingPieceWhite to WhitePieceMoveOperationError--><g id="link_MovingPieceWhite_WhitePieceMoveOperationError"><path d="M324.08,514.307 C323.56,528.211 323.3972,539.4493 324.3412,551.6333 " fill="none" id="MovingPieceWhite-to-WhitePieceMoveOperationError" style="stroke:#181818;stroke-width:0.8000000000000002;"/><polygon fill="#181818" points="324.712,556.419,327.3463,548.9933,324.403,552.431,320.9654,549.4877,324.712,556.419" style="stroke:#181818;stroke-width:0.8000000000000002;"/></g><!--link WhitePieceMoveOperationError to MovingPieceWhite--><g id="link_WhitePieceMoveOperationError_MovingPieceWhite"><path d="M333.688,556.419 C334.632,544.235 335.0194,533.0076 334.4994,519.1036 " fill="none" id="WhitePieceMoveOperationError-to-MovingPieceWhite" style="stroke:#181818;stroke-width:0.8000000000000002;"/><polygon fill="#181818" points="334.32,514.307,331.3913,521.6216,334.4695,518.3042,337.7869,521.3824,334.32,514.307" style="stroke:#181818;stroke-width:0.8000000000000002;"/></g><!--link MovingPieceWhite to EndWhite--><g id="link_MovingPieceWhite_EndWhite"><path d="M377.48,514.179 C399.496,528.099 420.846,541.5833 440.182,553.7993 " fill="none" id="MovingPieceWhite-to-EndWhite" style="stroke:#181818;stroke-width:0.8000000000000002;"/><polygon fill="#181818" points="444.24,556.363,439.8622,549.8121,440.8583,554.2266,436.4439,555.2227,444.24,556.363" style="stroke:#181818;stroke-width:0.8000000000000002;"/><text fill="#000000" font-family="sans-serif" font-size="10.4" lengthAdjust="spacing" textLength="62.2578" x="420.4" y="538.9285">piecePlaced</text></g><g id="InGame.Victory"><rect fill="#F1F1F1" height="40" rx="10" ry="10" style="stroke:#181818;stroke-width:0.4000000000000001;" width="55.4078" x="553.6" y="646.6375"/><line style="stroke:#181818;stroke-width:0.4000000000000001;" x1="553.6" x2="609.0078" y1="667.675" y2="667.675"/><text fill="#000000" font-family="sans-serif" font-size="11.2" lengthAdjust="spacing" textLength="39.4078" x="561.6" y="661.0336">Victory</text></g><g id="InGame.Draw"><rect fill="#F1F1F1" height="40" rx="10" ry="10" style="stroke:#181818;stroke-width:0.4000000000000001;" width="45.2523" x="640.8" y="646.6375"/><line style="stroke:#181818;stroke-width:0.4000000000000001;" x1="640.8" x2="686.0523" y1="667.675" y2="667.675"/><text fill="#000000" font-family="sans-serif" font-size="11.2" lengthAdjust="spacing" textLength="29.2523" x="648.8" y="661.0336">Draw</text></g><path d="M612.4,271.4375 L1005.6219,271.4375 A10,10 0 0 1 1015.6219,281.4375 L1015.6219,292.475 L602.4,292.475 L602.4,281.4375 A10,10 0 0 1 612.4,271.4375 " fill="#F1F1F1" style="stroke:#F1F1F1;stroke-width:0.8000000000000002;"/><rect fill="none" height="333.0375" rx="10" ry="10" style="stroke:#181818;stroke-width:0.4000000000000001;" width="413.2219" x="602.4" y="271.4375"/><line style="stroke:#181818;stroke-width:0.4000000000000001;" x1="602.4" x2="1015.6219" y1="292.475" y2="292.475"/><text fill="#000000" font-family="sans-serif" font-size="11.2" lengthAdjust="spacing" textLength="59.4945" x="779.2637" y="285.8336">BlackPlays</text><ellipse cx="717.6" cy="309.275" fill="#222222" rx="8" ry="8" style="stroke:#222222;stroke-width:0.8000000000000002;"/><g id="InGame.BlackPlays.SelectingPieceBlack"><rect fill="#F1F1F1" height="62.5625" rx="10" ry="10" style="stroke:#181818;stroke-width:0.4000000000000001;" width="165.7844" x="634.8" y="346.875"/><line style="stroke:#181818;stroke-width:0.4000000000000001;" x1="634.8" x2="800.5844" y1="367.9125" y2="367.9125"/><text fill="#000000" font-family="sans-serif" font-size="11.2" lengthAdjust="spacing" textLength="111.9781" x="661.7031" y="361.2711">SelectingPieceBlack</text><text fill="#000000" font-family="sans-serif" font-size="9.6" lengthAdjust="spacing" textLength="106.0453" x="638.8" y="380.8234">entry: showMessage()</text><text fill="#000000" font-family="sans-serif" font-size="9.6" lengthAdjust="spacing" textLength="106.5234" x="638.8" y="391.9984">do:    input coordinate</text><text fill="#000000" font-family="sans-serif" font-size="9.6" lengthAdjust="spacing" textLength="149.7844" x="638.8" y="403.1734">exit:  select(origin: Coordinate)</text></g><g id="InGame.BlackPlays.BlackPieceSelectionOperationError"><rect fill="#F1F1F1" height="40" rx="10" ry="10" style="stroke:#181818;stroke-width:0.4000000000000001;" width="211.2016" x="612" y="462.875"/><line style="stroke:#181818;stroke-width:0.4000000000000001;" x1="612" x2="823.2016" y1="483.9125" y2="483.9125"/><text fill="#000000" font-family="sans-serif" font-size="11.2" lengthAdjust="spacing" textLength="195.2016" x="620" y="477.2711">BlackPieceSelectionOperationError</text></g><g id="InGame.BlackPlays.MovingPieceBlack"><rect fill="#F1F1F1" height="62.5625" rx="10" ry="10" style="stroke:#181818;stroke-width:0.4000000000000001;" width="152.1766" x="837.6" y="451.675"/><line style="stroke:#181818;stroke-width:0.4000000000000001;" x1="837.6" x2="989.7766" y1="472.7125" y2="472.7125"/><text fill="#000000" font-family="sans-serif" font-size="11.2" lengthAdjust="spacing" textLength="100.5703" x="863.4031" y="466.0711">MovingPieceBlack</text><text fill="#000000" font-family="sans-serif" font-size="9.6" lengthAdjust="spacing" textLength="106.0453" x="841.6" y="485.6234">entry: showMessage()</text><text fill="#000000" font-family="sans-serif" font-size="9.6" lengthAdjust="spacing" textLength="97.3688" x="841.6" y="496.7984">do: input coordinate</text><text fill="#000000" font-family="sans-serif" font-size="9.6" lengthAdjust="spacing" textLength="136.1766" x="841.6" y="507.9734">exit: put(target: Coordinate)</text></g><g id="InGame.BlackPlays.EndBlack"><rect fill="#F1F1F1" height="40" rx="10" ry="10" style="stroke:#181818;stroke-width:0.4000000000000001;" width="67.5867" x="736.8" y="556.475"/><line style="stroke:#181818;stroke-width:0.4000000000000001;" x1="736.8" x2="804.3867" y1="577.5125" y2="577.5125"/><text fill="#000000" font-family="sans-serif" font-size="11.2" lengthAdjust="spacing" textLength="51.5867" x="744.8" y="570.8711">EndBlack</text></g><g id="InGame.BlackPlays.BlackPieceMoveOperationError"><rect fill="#F1F1F1" height="40" rx="10" ry="10" style="stroke:#181818;stroke-width:0.4000000000000001;" width="189.6219" x="818.8" y="556.475"/><line style="stroke:#181818;stroke-width:0.4000000000000001;" x1="818.8" x2="1008.4219" y1="577.5125" y2="577.5125"/><text fill="#000000" font-family="sans-serif" font-size="11.2" lengthAdjust="spacing" textLength="173.6219" x="826.8" y="570.8711">BlackPieceMoveOperationError</text></g><!--link *start*BlackPlays to SelectingPieceBlack--><g id="link_*start*BlackPlays_SelectingPieceBlack"><path d="M717.6,317.523 C717.6,324.635 717.6,331.027 717.6,341.811 " fill="none" id="*start*BlackPlays-to-SelectingPieceBlack" style="stroke:#181818;stroke-width:0.8000000000000002;"/><polygon fill="#181818" points="717.6,346.611,720.8,339.411,717.6,342.611,714.4,339.411,717.6,346.611" style="stroke:#181818;stroke-width:0.8000000000000002;"/></g><!--link SelectingPieceBlack to BlackPieceSelectionOperationError--><g id="link_SelectingPieceBlack_BlackPieceSelectionOperationError"><path d="M712.624,409.283 C711.896,426.523 711.7345,442.8012 712.8945,457.8252 " fill="none" id="SelectingPieceBlack-to-BlackPieceSelectionOperationError" style="stroke:#181818;stroke-width:0.8000000000000002;"/><polygon fill="#181818" points="713.264,462.611,715.9002,455.186,712.9561,458.6229,709.5192,455.6787,713.264,462.611" style="stroke:#181818;stroke-width:0.8000000000000002;"/></g><!--link BlackPieceSelectionOperationError to SelectingPieceBlack--><g id="link_BlackPieceSelectionOperationError_SelectingPieceBlack"><path d="M721.936,462.611 C723.096,447.587 723.5065,431.3187 722.7785,414.0787 " fill="none" id="BlackPieceSelectionOperationError-to-SelectingPieceBlack" style="stroke:#181818;stroke-width:0.8000000000000002;"/><polygon fill="#181818" points="722.576,409.283,719.6826,416.6116,722.7448,413.2794,726.0769,416.3416,722.576,409.283" style="stroke:#181818;stroke-width:0.8000000000000002;"/></g><!--link SelectingPieceBlack to MovingPieceBlack--><g id="link_SelectingPieceBlack_MovingPieceBlack"><path d="M775.344,409.283 C800.64,422.595 826.0168,435.9587 851.3448,449.2947 " fill="none" id="SelectingPieceBlack-to-MovingPieceBlack" style="stroke:#181818;stroke-width:0.8000000000000002;"/><polygon fill="#181818" points="855.592,451.531,850.712,445.3451,852.0526,449.6674,847.7303,451.008,855.592,451.531" style="stroke:#181818;stroke-width:0.8000000000000002;"/><text fill="#000000" font-family="sans-serif" font-size="10.4" lengthAdjust="spacing" textLength="72.7594" x="828.8" y="434.1285">SelectedPiece</text></g><!--link MovingPieceBlack to EndBlack--><g id="link_MovingPieceBlack_EndBlack"><path d="M865.92,514.307 C844.272,528.211 823.3741,541.6401 804.4141,553.8241 " fill="none" id="MovingPieceBlack-to-EndBlack" style="stroke:#181818;stroke-width:0.8000000000000002;"/><polygon fill="#181818" points="800.376,556.419,808.1631,555.2186,803.7411,554.2565,804.7032,549.8345,800.376,556.419" style="stroke:#181818;stroke-width:0.8000000000000002;"/><text fill="#000000" font-family="sans-serif" font-size="10.4" lengthAdjust="spacing" textLength="62.2578" x="842.4" y="538.9285">piecePlaced</text></g><!--link MovingPieceBlack to BlackPieceMoveOperationError--><g id="link_MovingPieceBlack_BlackPieceMoveOperationError"><path d="M908.48,514.307 C907.96,528.211 907.7972,539.4493 908.7412,551.6333 " fill="none" id="MovingPieceBlack-to-BlackPieceMoveOperationError" style="stroke:#181818;stroke-width:0.8000000000000002;"/><polygon fill="#181818" points="909.112,556.419,911.7463,548.9933,908.803,552.431,905.3654,549.4877,909.112,556.419" style="stroke:#181818;stroke-width:0.8000000000000002;"/></g><!--link BlackPieceMoveOperationError to MovingPieceBlack--><g id="link_BlackPieceMoveOperationError_MovingPieceBlack"><path d="M918.088,556.419 C919.032,544.235 919.4194,533.0076 918.8994,519.1036 " fill="none" id="BlackPieceMoveOperationError-to-MovingPieceBlack" style="stroke:#181818;stroke-width:0.8000000000000002;"/><polygon fill="#181818" points="918.72,514.307,915.7913,521.6216,918.8695,518.3042,922.1869,521.3824,918.72,514.307" style="stroke:#181818;stroke-width:0.8000000000000002;"/></g><!--link *start*InGame to WhitePlays--><g id="link_*start*InGame_WhitePlays"><path d="M266,241.8375 C266,248.2855 266,253.8615 266,266.5575 " fill="none" id="*start*InGame-to-WhitePlays" style="stroke:#181818;stroke-width:0.8000000000000002;"/><polygon fill="#181818" points="266,271.3575,269.2,264.1575,266,267.3575,262.8,264.1575,266,271.3575" style="stroke:#181818;stroke-width:0.8000000000000002;"/></g><!--link WhitePlays to Victory--><g id="link_WhitePlays_Victory"><path d="M428.776,604.2695 C442.448,614.4695 456.52,623.9415 470.8,632.2375 C496.784,647.3335 525.5239,655.3032 548.7559,660.1192 " fill="none" id="WhitePlays-to-Victory" style="stroke:#181818;stroke-width:0.8000000000000002;"/><polygon fill="#181818" points="553.456,661.0935,547.0554,656.4986,549.5393,660.2816,545.7563,662.7654,553.456,661.0935" style="stroke:#181818;stroke-width:0.8000000000000002;"/><text fill="#000000" font-family="sans-serif" font-size="10.4" lengthAdjust="spacing" textLength="81.0926" x="471.6" y="629.091">[IsCheckmate?]</text></g><!--link WhitePlays to Draw--><g id="link_WhitePlays_Draw"><path d="M517.176,594.0295 C529.432,602.2455 541.496,610.4775 553.2,618.6375 C561.312,624.2935 562.04,627.6535 570.8,632.2375 C589.632,642.0855 596.408,639.4295 616.4,646.6375 C624.392,649.5175 628.5825,651.1214 636.2545,654.2654 " fill="none" id="WhitePlays-to-Draw" style="stroke:#181818;stroke-width:0.8000000000000002;"/><polygon fill="#181818" points="640.696,656.0855,635.2472,650.3943,636.9947,654.5687,632.8203,656.3163,640.696,656.0855" style="stroke:#181818;stroke-width:0.8000000000000002;"/><text fill="#000000" font-family="sans-serif" font-size="10.4" lengthAdjust="spacing" textLength="49.1055" x="571.6" y="629.091">[isDraw?]</text></g><!--link WhitePlays to BlackPlays--><g id="link_WhitePlays_BlackPlays"><path d="M516.928,437.8375 C545.496,437.8375 569.56,437.8375 597.464,437.8375 " fill="none" id="WhitePlays-to-BlackPlays" style="stroke:#181818;stroke-width:0.8000000000000002;"/><polygon fill="#181818" points="602.264,437.8375,595.064,434.6375,598.264,437.8375,595.064,441.0375,602.264,437.8375" style="stroke:#181818;stroke-width:0.8000000000000002;"/><text fill="#000000" font-family="sans-serif" font-size="10.4" lengthAdjust="spacing" textLength="70.2" x="524.8" y="432.291">changeTurn()</text></g><!--link BlackPlays to Victory--><g id="link_BlackPlays_Victory"><path d="M654.296,604.2855 C644.328,613.8935 634.312,623.2775 624.4,632.2375 C619.04,637.0775 616.8271,639.0358 611.0671,643.5718 " fill="none" id="BlackPlays-to-Victory" style="stroke:#181818;stroke-width:0.8000000000000002;"/><polygon fill="#181818" points="607.296,646.5415,614.9324,644.601,610.4385,644.0667,610.9728,639.5729,607.296,646.5415" style="stroke:#181818;stroke-width:0.8000000000000002;"/><text fill="#000000" font-family="sans-serif" font-size="10.4" lengthAdjust="spacing" textLength="81.0926" x="635.6" y="629.091">[IsCheckmate?]</text></g><!--link BlackPlays to Draw--><g id="link_BlackPlays_Draw"><path d="M779.352,604.4375 C773.808,614.4695 767.28,623.8615 759.6,632.2375 C740.68,652.8615 713.137,660.1515 691.289,663.2315 " fill="none" id="BlackPlays-to-Draw" style="stroke:#181818;stroke-width:0.8000000000000002;"/><polygon fill="#181818" points="686.536,663.9015,694.1122,666.0651,690.4968,663.3431,693.2188,659.7278,686.536,663.9015" style="stroke:#181818;stroke-width:0.8000000000000002;"/><text fill="#000000" font-family="sans-serif" font-size="10.4" lengthAdjust="spacing" textLength="49.1055" x="770" y="629.091">[isDraw?]</text></g><!--reverse link WhitePlays to BlackPlays--><g id="link_WhitePlays_BlackPlays"><path d="M521.7354,454.5785 C548.1594,455.0025 569.824,454.7815 595.2,453.8375 C597.528,453.7495 599.864,453.6615 602.224,453.5575 " fill="none" id="WhitePlays-backto-BlackPlays" style="stroke:#181818;stroke-width:0.8000000000000002;"/><polygon fill="#181818" points="516.936,454.5015,524.0837,457.8166,520.9355,454.5657,524.1864,451.4174,516.936,454.5015" style="stroke:#181818;stroke-width:0.8000000000000002;"/><text fill="#000000" font-family="sans-serif" font-size="10.4" lengthAdjust="spacing" textLength="70.2" x="524.8" y="450.691">changeTurn()</text></g><g id="Final"><rect fill="#F1F1F1" height="40" rx="10" ry="10" style="stroke:#181818;stroke-width:0.4000000000000001;" width="42.6273" x="757.2" y="830.4"/><line style="stroke:#181818;stroke-width:0.4000000000000001;" x1="757.2" x2="799.8273" y1="851.4375" y2="851.4375"/><text fill="#000000" font-family="sans-serif" font-size="11.2" lengthAdjust="spacing" textLength="26.6273" x="765.2" y="844.7961">Final</text></g><g id="End"><rect fill="#F1F1F1" height="40" rx="10" ry="10" style="stroke:#181818;stroke-width:0.4000000000000001;" width="40" x="758.4" y="919.2"/><line style="stroke:#181818;stroke-width:0.4000000000000001;" x1="758.4" x2="798.4" y1="940.2375" y2="940.2375"/><text fill="#000000" font-family="sans-serif" font-size="11.2" lengthAdjust="spacing" textLength="21.2844" x="767.7578" y="933.5961">End</text></g><ellipse cx="778.4" cy="1016.8" fill="none" rx="8.8" ry="8.8" style="stroke:#222222;stroke-width:0.8000000000000002;"/><ellipse cx="778.4" cy="1016.8" fill="#222222" rx="4.8" ry="4.8" style="stroke:#222222;stroke-width:0.8000000000000002;"/><!--link *start* to Initial--><g id="link_*start*_Initial"><path d="M777.6,20.808 C777.6,31.912 777.6,48.776 777.6,64.672 " fill="none" id="*start*-to-Initial" style="stroke:#181818;stroke-width:0.8000000000000002;"/><polygon fill="#181818" points="777.6,69.472,780.8,62.272,777.6,65.472,774.4,62.272,777.6,69.472" style="stroke:#181818;stroke-width:0.8000000000000002;"/></g><!--link Initial to InGame--><g id="link_Initial_InGame"><path d="M763.264,109.68 C749.184,128.624 728.8325,155.9964 702.0885,191.9564 " fill="none" id="Initial-to-InGame" style="stroke:#181818;stroke-width:0.8000000000000002;"/><polygon fill="#181818" points="699.224,195.808,706.0885,191.9403,701.6111,192.5983,700.953,188.121,699.224,195.808" style="stroke:#181818;stroke-width:0.8000000000000002;"/><text fill="#000000" font-family="sans-serif" font-size="10.4" lengthAdjust="spacing" textLength="32.3375" x="745.6" y="144.0535">start()</text></g><!--link InGame to Final--><g id="link_InGame_Final"><path d="M676.896,694.424 C714.304,751.608 745.6198,799.4955 763.1878,826.3435 " fill="none" id="InGame-to-Final" style="stroke:#181818;stroke-width:0.8000000000000002;"/><polygon fill="#181818" points="765.816,830.36,764.5514,822.5831,763.6258,827.0129,759.196,826.0874,765.816,830.36" style="stroke:#181818;stroke-width:0.8000000000000002;"/></g><!--reverse link Initial to Final--><g id="link_Initial_Final"><path d="M806.0402,93.0057 C870.8322,99.4857 1041.6,121.168 1041.6,171.2 C1041.6,171.2 1041.6,171.2 1041.6,781.6 C1041.6,831.448 862.376,845.336 799.712,848.664 " fill="none" id="Initial-backto-Final" style="stroke:#181818;stroke-width:0.8000000000000002;"/><polygon fill="#181818" points="801.264,92.528,808.1098,96.4286,805.2441,92.9261,808.7467,90.0604,801.264,92.528" style="stroke:#181818;stroke-width:0.8000000000000002;"/><text fill="#000000" font-family="sans-serif" font-size="10.4" lengthAdjust="spacing" textLength="34.0793" x="1042.4" y="728.8535">reboot</text></g><!--link Final to End--><g id="link_Final_End"><path d="M778.4,870.552 C778.4,885 778.4,899.864 778.4,914.304 " fill="none" id="Final-to-End" style="stroke:#181818;stroke-width:0.8000000000000002;"/><polygon fill="#181818" points="778.4,919.104,781.6,911.904,778.4,915.104,775.2,911.904,778.4,919.104" style="stroke:#181818;stroke-width:0.8000000000000002;"/></g><!--link End to *end*--><g id="link_End_*end*"><path d="M778.4,959.568 C778.4,975.232 778.4,991.592 778.4,1003.04 " fill="none" id="End-to-*end*" style="stroke:#181818;stroke-width:0.8000000000000002;"/><polygon fill="#181818" points="778.4,1007.84,781.6,1000.64,778.4,1003.84,775.2,1000.64,778.4,1007.84" style="stroke:#181818;stroke-width:0.8000000000000002;"/></g><!--SRC=[dLNBRi8m4BpxAto4Iln03grKIYiEg4YjsWFYu2RRn2BOaMDA4Ug_T-sO488J0qWXpkximvkPU76tfAFHFPqAhZdBYRixsmjRGqHBpPGU30aXkDBWx7HFAFuMBi5dnZNCSxOhYRLNqAFLmPiXRv13hBb8vnnYiD0Qu_7HY8BGQeSDPN8xWx9aAM1R_I69Z8oJYsAZQIobIhXWuKA_N6DSQPq3gNZAHKJ7TVYGz2Ou3iJO74AArm8KCuk9Kb85CypaJxkl2Wg9DHvx2DRgd7UTugpOwHxG3Htjzu6y-mWKdOZ4FaIqC0vaJmn9Tqo05UTmmuXEEdYoMoeWV80oI45xQF1NtHfaD_luuB6MQeTlRJ4jnnd4gpM6F2nzs2V5jWR8IxFoO921cKRW8qvZLTaY6cTCfF2-KM9m86GbkmPgJmAwizWkEbldTS8xX5mdlBhGhSAh4epg4LqYl23ojd6rE7_OMeTssyZB-UpWb_Bva3tCPryWjTioudHvckBi33fz7pqVaJwGTw1Lf5DUW-z1vRMmNkKrCJbywzC3hgqyRC8TYGRtZ9FCYVt7vz6cQ1ol6AdWIqfT- -tdZk1brwXGyWy0]--></g></svg>